<svg xmlns="http://www.w3.org/2000/svg" aria-hidden="true" style="position:absolute;width:0;height:0;overflow:hidden">
  <defs>
    <symbol id="icon-down-arrow" viewBox="0 0 62 32">
      <path d="M3.744.608c-1.822.446-2.782 2.526-1.937 4.19.273.539 1.428 1.593 13.937 12.721 7.503 6.673 13.836 12.251 14.078 12.394.8.478 2.24.455 2.983-.047.224-.153 6.54-5.726 14.033-12.389C61.935 4.057 60.933 5.036 61.007 3.623c.034-.618 0-.825-.209-1.282-.354-.77-.719-1.159-1.388-1.487-.478-.234-.721-.286-1.354-.288-.657-.002-.849.042-1.285.283-.283.158-6.119 5.27-12.97 11.36s-12.49 11.072-12.532 11.072c-.042 0-5.561-4.876-12.263-10.836-2.111-1.921-6.238-5.588-10.379-9.238L6.326 1.218A3.013 3.013 0 0 0 4.408.534c-.235 0-.464.027-.684.077l.02-.004z"/>
    </symbol>
    <symbol id="icon-right-arrow" viewBox="0 0 32 32">
      <path d="M15.283.769c-.849.317-1.184 1.346-.673 2.075.086.122 2.725 2.79 5.866 5.929l5.711 5.706-12.307.026c-13.659.03-12.454-.006-12.893.379-.616.542-.599 1.579.034 2.081.417.33-.493.309 12.925.311l12.319.002-5.873 5.88c-4.582 4.586-5.886 5.921-5.929 6.066-.11.371-.123.536-.065.813.177.837 1.105 1.301 1.903.951.216-.095 1.447-1.301 7.341-7.192 4.984-4.982 7.113-7.144 7.191-7.303.149-.305.151-.823.007-1.141-.082-.178-1.787-1.913-7.205-7.326C19.478 3.873 16.454.892 16.338.833c-.262-.135-.782-.167-1.054-.066z"/>
    </symbol>
    <symbol id="icon-logo" viewBox="0 0 40 32">
      <path d="M0 2.949v7.264c0 2.212 2.696 3.392 4.343 1.844l7.863-7.264c1.722-1.586.599-4.388-1.76-4.388H2.583C1.16.405 0 1.548 0 2.949zM37.216.405h-7.863c-2.321 0-3.482 2.802-1.76 4.388l7.863 7.264c1.647 1.512 4.343.369 4.343-1.844V2.949c0-1.401-1.161-2.544-2.583-2.544zM21.678 18.141l13.778 12.758c1.647 1.512 4.343.369 4.343-1.844v-7.338c0-.701-.3-1.364-.824-1.844L21.677 3.833a2.633 2.633 0 0 0-3.557 0L.822 19.873a2.496 2.496 0 0 0-.824 1.844v7.338c0 2.212 2.696 3.392 4.343 1.844l13.778-12.758a2.633 2.633 0 0 1 3.557 0z"/>
    </symbol>
    <symbol id="icon-round" viewBox="0 0 32 32">
      <path d="M32 16c0 8.837-7.163 16-16 16s-16-7.163-16-16c0-8.837 7.163-16 16-16s16 7.163 16 16z"></path>
    </symbol>
  </defs>
</svg>