<svg xmlns="http://www.w3.org/2000/svg" aria-hidden="true" style="position:absolute;width:0;height:0;overflow:hidden">
  <defs>
    <symbol id="icon-down-arrow" viewBox="0 0 62 32">
      <path d="M3.744.608c-1.822.446-2.782 2.526-1.937 4.19.273.539 1.428 1.593 13.937 12.721 7.503 6.673 13.836 12.251 14.078 12.394.8.478 2.24.455 2.983-.047.224-.153 6.54-5.726 14.033-12.389C61.935 4.057 60.933 5.036 61.007 3.623c.034-.618 0-.825-.209-1.282-.354-.77-.719-1.159-1.388-1.487-.478-.234-.721-.286-1.354-.288-.657-.002-.849.042-1.285.283-.283.158-6.119 5.27-12.97 11.36s-12.49 11.072-12.532 11.072c-.042 0-5.561-4.876-12.263-10.836-2.111-1.921-6.238-5.588-10.379-9.238L6.326 1.218A3.013 3.013 0 0 0 4.408.534c-.235 0-.464.027-.684.077l.02-.004z"/>
    </symbol>
    <symbol id="icon-right-arrow" viewBox="0 0 32 32">
      <path d="M15.283.769c-.849.317-1.184 1.346-.673 2.075.086.122 2.725 2.79 5.866 5.929l5.711 5.706-12.307.026c-13.659.03-12.454-.006-12.893.379-.616.542-.599 1.579.034 2.081.417.33-.493.309 12.925.311l12.319.002-5.873 5.88c-4.582 4.586-5.886 5.921-5.929 6.066-.11.371-.123.536-.065.813.177.837 1.105 1.301 1.903.951.216-.095 1.447-1.301 7.341-7.192 4.984-4.982 7.113-7.144 7.191-7.303.149-.305.151-.823.007-1.141-.082-.178-1.787-1.913-7.205-7.326C19.478 3.873 16.454.892 16.338.833c-.262-.135-.782-.167-1.054-.066z"/>
    </symbol>
    <symbol id="icon-logo" viewBox="0 0 40 32">
      <path d="M0 2.949v7.264c0 2.212 2.696 3.392 4.343 1.844l7.863-7.264c1.722-1.586.599-4.388-1.76-4.388H2.583C1.16.405 0 1.548 0 2.949zM37.216.405h-7.863c-2.321 0-3.482 2.802-1.76 4.388l7.863 7.264c1.647 1.512 4.343.369 4.343-1.844V2.949c0-1.401-1.161-2.544-2.583-2.544zM21.678 18.141l13.778 12.758c1.647 1.512 4.343.369 4.343-1.844v-7.338c0-.701-.3-1.364-.824-1.844L21.677 3.833a2.633 2.633 0 0 0-3.557 0L.822 19.873a2.496 2.496 0 0 0-.824 1.844v7.338c0 2.212 2.696 3.392 4.343 1.844l13.778-12.758a2.633 2.633 0 0 1 3.557 0z"/>
    </symbol>
    <symbol id="icon-bg" viewBox="0 0 112 32">
<path fill="#ffe492" style="fill: var(--color1, #ffe492)" opacity="0.3" d="M37.879 31.958c-0.553 0-1.091-0.026-1.609-0.078-1.085-0.109-2.087-0.334-2.979-0.667-0.959-0.358-1.8-0.846-2.499-1.45-1.407-1.214-2.11-2.668-2.791-4.074-0.134-0.276-0.272-0.562-0.412-0.839-0.958-1.888-2.172-3.542-3.711-5.056-3.071-3.021-7.39-5.598-12.49-7.455-5.898-2.147-12.239-3.216-17.856-3.011-3.301 0.121-7.663 1.267-9.612 3.225-1.157 1.162-1.25 2.452-0.27 3.729l-0.019 0.005c-0.514-0.67-0.738-1.342-0.666-1.996 0.067-0.601 0.381-1.188 0.936-1.745 0.882-0.886 2.337-1.672 4.208-2.272 1.729-0.554 3.654-0.895 5.421-0.96 2.939-0.107 6.065 0.131 9.291 0.707 2.924 0.523 5.81 1.298 8.577 2.306 5.103 1.857 9.424 4.437 12.497 7.459 1.54 1.515 2.755 3.17 3.713 5.059 0.141 0.277 0.279 0.563 0.412 0.839 0.68 1.405 1.383 2.858 2.788 4.070 1.358 1.173 3.197 1.883 5.465 2.111 3.14 0.316 6.954-0.345 10.201-1.769 4.679-2.052 7.927-5.039 11.067-7.928 0.551-0.506 1.12-1.030 1.683-1.535 1.463-1.313 3.445-3.014 5.8-4.53 2.407-1.549 4.853-2.687 7.477-3.48 1.607-0.485 3.31-0.812 5.061-0.971 1.618-0.147 3.33-0.156 5.090-0.027 3.018 0.222 6.269 0.847 9.939 1.913 7.228 2.098 14.447 4.644 21.459 7.569 6.665 2.779 13.201 5.925 19.427 9.348l-0.015 0.010c-12.906-7.096-26.66-12.787-40.88-16.915-8.033-2.332-14.411-2.622-20.071-0.914-5.758 1.738-9.78 4.874-13.269 8.005-0.563 0.505-1.133 1.029-1.683 1.535-3.142 2.89-6.39 5.878-11.073 7.931-1.513 0.664-3.215 1.181-4.922 1.497-0.902 0.167-1.798 0.276-2.665 0.324-0.345 0.020-0.686 0.029-1.022 0.029z"></path>
<path fill="#ffe492" style="fill: var(--color1, #ffe492)" opacity="0.3" d="M38.419 31.238c-1.41 0-2.717-0.161-3.884-0.48-1.302-0.355-2.425-0.905-3.339-1.635-0.094-0.075-0.171-0.14-0.248-0.206l0.009 0.008c-1.392-1.209-2.127-2.644-2.837-4.032-0.144-0.28-0.292-0.571-0.443-0.852-0.897-1.676-1.977-3.154-3.303-4.516-0.166-0.17-0.329-0.333-0.496-0.493l-0.007-0.007c-3.116-2.994-7.47-5.54-12.591-7.36-5.941-2.11-12.3-3.135-17.906-2.886-3.277 0.147-7.619 1.312-9.577 3.255-1.172 1.163-1.305 2.456-0.384 3.737l-0.020 0.005c-0.483-0.672-0.681-1.344-0.589-2 0.084-0.602 0.412-1.19 0.975-1.749 0.891-0.885 2.342-1.671 4.195-2.274 1.713-0.557 3.63-0.908 5.398-0.987 2.936-0.13 6.065 0.085 9.302 0.639 2.931 0.502 5.831 1.259 8.617 2.249 5.124 1.822 9.48 4.368 12.598 7.364 0.173 0.167 0.337 0.33 0.498 0.495l0.005 0.005c1.326 1.364 2.407 2.842 3.305 4.519 0.151 0.282 0.299 0.572 0.443 0.852 0.71 1.387 1.445 2.821 2.834 4.028 0.067 0.059 0.145 0.124 0.223 0.187l0.015 0.011c1.889 1.509 4.484 2.123 7.213 2.123h0.045c-0.017-0-0.034 0-0.051 0zM39.002 31.229c2.537-0.078 5.156-0.664 7.402-1.535 4.845-1.887 8.327-4.803 11.695-7.622 0.139-0.116 0.277-0.232 0.416-0.348 0.304-0.255 0.665-0.556 1.034-0.86 1.653-1.362 3.653-2.947 5.957-4.374 2.451-1.518 4.9-2.645 7.486-3.444 1.589-0.491 3.268-0.836 4.991-1.027 1.597-0.177 3.284-0.227 5.014-0.149 2.989 0.135 6.203 0.649 9.826 1.569 3.532 0.896 6.436 1.739 9.138 2.654 3.827 1.297 7.473 2.792 10.534 4.083 7.118 3.010 14.101 6.428 20.757 10.159l-0.015 0.009c-6.655-3.73-13.638-7.148-20.754-10.158-3.061-1.291-6.706-2.785-10.533-4.082-2.701-0.915-5.603-1.758-9.135-2.654-7.891-2.005-14.187-2.13-19.813-0.393-5.839 1.805-9.996 4.98-13.435 7.814-0.369 0.304-0.729 0.605-1.034 0.86-0.882 0.725-1.017 0.839-1.153 0.953l0.737-0.604c-3.369 2.82-6.852 5.736-11.701 7.625-1.202 0.466-2.482 0.837-3.802 1.101-1.23 0.246-2.442 0.388-3.611 0.423z"></path>
<path fill="#ffe492" style="fill: var(--color1, #ffe492)" opacity="0.3" d="M39.016 30.534c-0.17 0-0.338-0.002-0.506-0.007-1.409-0.037-2.713-0.232-3.876-0.578-1.272-0.378-2.373-0.939-3.274-1.666-0.093-0.075-0.17-0.14-0.246-0.207l0.009 0.008c-1.376-1.203-2.142-2.619-2.882-3.988-0.154-0.285-0.314-0.581-0.476-0.867-0.941-1.671-2.050-3.136-3.39-4.48-0.164-0.165-0.331-0.326-0.499-0.485l-0.011-0.010c-3.161-2.968-7.55-5.481-12.692-7.266-5.983-2.073-12.36-3.055-17.957-2.762-3.151 0.167-7.48 1.266-9.538 3.283-1.189 1.165-1.362 2.461-0.501 3.747l-0.020 0.005c-0.451-0.674-0.624-1.348-0.512-2.005 0.102-0.604 0.444-1.194 1.015-1.753 0.901-0.883 2.347-1.669 4.182-2.275 1.697-0.56 3.605-0.92 5.372-1.014 2.932-0.153 6.065 0.039 9.312 0.572 2.939 0.482 5.852 1.22 8.658 2.192 5.145 1.786 9.536 4.3 12.699 7.27 0.18 0.169 0.346 0.331 0.51 0.495l0.001 0.001c1.34 1.345 2.45 2.812 3.392 4.483 0.162 0.286 0.321 0.582 0.476 0.867 0.74 1.368 1.505 2.783 2.879 3.985 0.067 0.059 0.144 0.124 0.222 0.187l0.014 0.011c3.661 2.954 10.149 2.637 14.955 1.012 5.047-1.721 8.798-4.582 12.426-7.348l0.037-0.028c0.351-0.268 0.715-0.545 1.076-0.819 3.815-2.887 8.009-5.854 13.608-7.626 1.572-0.496 3.229-0.861 4.923-1.084 1.575-0.207 3.237-0.298 4.938-0.27 2.965 0.048 6.142 0.449 9.712 1.225 3.752 0.813 6.576 1.56 9.155 2.423 3.675 1.232 7.235 2.788 10.376 4.161 6.993 3.074 13.87 6.536 20.441 10.291l-0.015 0.009c-6.569-3.755-13.446-7.217-20.439-10.29-3.14-1.373-6.7-2.929-10.374-4.16-2.579-0.862-5.401-1.609-9.152-2.422-7.739-1.682-13.953-1.642-19.556 0.127-5.595 1.771-9.787 4.737-13.602 7.623-0.361 0.274-0.725 0.551-1.076 0.819l-0.037 0.028c-1.808 1.378-3.677 2.804-5.696 4.077-2.268 1.431-4.472 2.502-6.737 3.274-2.369 0.801-4.95 1.234-7.326 1.234z"></path>
<path fill="#ffe492" style="fill: var(--color1, #ffe492)" opacity="0.3" d="M132.782 30.102c-6.484-3.779-13.254-7.285-20.123-10.422-0.291-0.132-0.582-0.264-0.875-0.397-2.975-1.353-6.051-2.751-9.34-3.841-3.191-1.054-6.426-1.699-9.168-2.19-7.571-1.365-13.703-1.159-19.298 0.648-5.742 1.861-10.193 4.95-13.768 7.432-0.214 0.149-0.429 0.298-0.643 0.448-0.159 0.11-0.317 0.221-0.476 0.331-2.036 1.415-3.887 2.68-5.934 3.834-2.337 1.319-4.59 2.284-6.888 2.952-2.153 0.626-4.454 0.957-6.593 0.957-0.39 0-0.774-0.011-1.151-0.033-1.378-0.081-2.654-0.309-3.791-0.677-1.242-0.402-2.321-0.973-3.21-1.697-0.092-0.076-0.169-0.141-0.244-0.207l0.009 0.008c-1.36-1.197-2.155-2.593-2.924-3.943-0.166-0.291-0.337-0.592-0.51-0.884-0.986-1.665-2.124-3.119-3.477-4.445-0.162-0.159-0.331-0.319-0.502-0.477l-0.016-0.014c-3.207-2.942-7.63-5.422-12.793-7.171-6.025-2.037-12.42-2.974-18.007-2.638-3.819 0.234-7.725 1.595-9.498 3.309-1.208 1.168-1.422 2.468-0.62 3.759l-0.020 0.005c-0.42-0.676-0.566-1.353-0.435-2.011 0.121-0.606 0.477-1.198 1.057-1.759 0.91-0.88 2.352-1.667 4.169-2.275 1.68-0.562 3.579-0.932 5.345-1.040 2.929-0.176 6.065-0.007 9.321 0.504 3.318 0.528 6.248 1.271 9.069 2.247l-0.371-0.111c5.166 1.75 9.592 4.231 12.8 7.176 0.187 0.172 0.356 0.332 0.522 0.495l-0.004-0.004c1.354 1.326 2.492 2.781 3.479 4.447 0.173 0.292 0.345 0.593 0.51 0.884 0.769 1.349 1.563 2.744 2.921 3.94 0.077 0.067 0.156 0.134 0.235 0.199 3.822 3.115 10.318 2.726 14.719 1.446 5.251-1.527 9.27-4.319 12.815-6.783 0.158-0.11 0.317-0.221 0.475-0.331 0.214-0.149 0.429-0.299 0.644-0.448 2.041-1.417 4.056-2.794 6.272-4.062 2.548-1.459 5.002-2.562 7.502-3.372 1.556-0.502 3.188-0.886 4.853-1.14 1.556-0.237 3.192-0.369 4.862-0.391 2.946-0.040 6.086 0.249 9.598 0.882 2.744 0.492 5.98 1.136 9.173 2.191 3.29 1.090 6.367 2.489 9.343 3.842 0.292 0.133 0.584 0.265 0.875 0.397 6.868 3.137 13.64 6.644 20.124 10.423l-0.015 0.009z"></path>
<path fill="#ffe492" style="fill: var(--color1, #ffe492)" opacity="0.3" d="M132.555 29.981c-6.521-3.875-13.185-7.426-19.807-10.555-0.396-0.187-0.801-0.38-1.194-0.567-2.807-1.336-5.71-2.717-8.862-3.749-3.149-1.027-6.41-1.566-9.185-1.958-7.387-1.054-13.437-0.682-19.039 1.169-5.344 1.772-9.531 4.437-13.579 7.014l-0.445 0.283c-0.351 0.224-0.714 0.455-1.072 0.681-4.053 2.562-8.11 4.964-13.174 6.192-1.068 0.273-2.347 0.49-3.654 0.607l-0.097 0.007c-1.353 0.118-2.668 0.119-3.907 0.005-1.346-0.124-2.593-0.385-3.706-0.776-1.211-0.425-2.269-1.007-3.145-1.728-0.092-0.076-0.168-0.141-0.243-0.208l0.009 0.008c-1.343-1.19-2.167-2.565-2.964-3.895-0.178-0.297-0.362-0.604-0.547-0.902-1.032-1.66-2.198-3.102-3.564-4.409-0.161-0.154-0.332-0.313-0.506-0.469l-0.020-0.018c-3.252-2.916-7.71-5.363-12.894-7.077-6.068-2-12.481-2.893-18.058-2.513-3.785 0.263-7.672 1.633-9.454 3.332-1.228 1.171-1.484 2.476-0.742 3.773l-0.020 0.004c-0.389-0.679-0.509-1.358-0.357-2.018 0.14-0.609 0.51-1.203 1.101-1.766 0.92-0.877 2.356-1.663 4.154-2.273 1.664-0.564 3.552-0.943 5.316-1.065 2.925-0.199 6.065-0.052 9.332 0.436 2.953 0.441 5.893 1.141 8.739 2.079 5.187 1.714 9.648 4.163 12.902 7.081 0.194 0.175 0.366 0.334 0.535 0.495l-0.008-0.008c1.367 1.307 2.533 2.75 3.566 4.411 0.186 0.298 0.37 0.605 0.547 0.902 0.796 1.329 1.62 2.704 2.961 3.892 0.065 0.058 0.141 0.123 0.218 0.187l0.015 0.012c3.73 3.072 9.927 2.986 14.484 1.881 5.061-1.227 9.116-3.628 13.167-6.189 0.358-0.227 0.721-0.458 1.072-0.681l0.445-0.283c1.987-1.265 4.042-2.573 6.274-3.79 2.528-1.378 4.919-2.434 7.31-3.227 1.539-0.509 3.149-0.911 4.784-1.196 1.537-0.268 3.147-0.44 4.787-0.513 2.934-0.13 6.036 0.046 9.484 0.538 2.777 0.392 6.040 0.932 9.19 1.96 3.155 1.032 6.058 2.414 8.867 3.75 0.392 0.187 0.797 0.379 1.194 0.567 6.622 3.129 13.286 6.68 19.808 10.556l-0.015 0.009z"></path>
<path fill="#ffe492" style="fill: var(--color1, #ffe492)" opacity="0.3" d="M132.328 29.86c-6.465-3.918-13.022-7.514-19.49-10.687-0.486-0.238-0.985-0.486-1.466-0.726-2.656-1.321-5.402-2.688-8.432-3.668-3.133-1.009-6.41-1.439-9.202-1.727-7.182-0.751-13.15-0.214-18.782 1.69-4.914 1.668-8.95 4.033-12.852 6.319-0.41 0.241-0.835 0.489-1.249 0.73-0.486 0.283-0.857 0.498-1.203 0.697-1.855 1.065-4.064 2.292-6.382 3.312-2.456 1.081-4.794 1.829-7.145 2.287-1.236 0.241-2.493 0.393-3.735 0.451-1.334 0.063-2.625 0.017-3.838-0.138-1.314-0.167-2.532-0.462-3.62-0.875-1.18-0.448-2.216-1.040-3.080-1.759-0.091-0.076-0.167-0.142-0.241-0.208l0.009 0.008c-1.325-1.182-2.177-2.536-3.001-3.845-0.191-0.304-0.389-0.618-0.588-0.923-1.079-1.656-2.273-3.086-3.651-4.373-0.158-0.148-0.332-0.306-0.508-0.461l-0.026-0.022c-3.297-2.89-7.791-5.305-12.995-6.983-6.11-1.963-12.541-2.811-18.108-2.389-3.168 0.246-7.305 1.378-9.408 3.353-1.25 1.174-1.55 2.485-0.867 3.79l-0.020 0.004c-0.357-0.682-0.45-1.365-0.278-2.027 0.16-0.612 0.545-1.208 1.147-1.774 0.93-0.874 2.361-1.658 4.139-2.269 1.647-0.566 3.524-0.953 5.285-1.090 2.922-0.222 6.065-0.098 9.341 0.368 2.96 0.421 5.914 1.101 8.78 2.022 5.208 1.679 9.704 4.095 13.003 6.987 0.201 0.177 0.375 0.334 0.546 0.495l-0.013-0.012c1.379 1.288 2.573 2.719 3.653 4.375 0.199 0.305 0.397 0.619 0.588 0.923 0.823 1.309 1.674 2.662 2.998 3.843 0.065 0.058 0.14 0.124 0.217 0.188l0.015 0.012c3.103 2.583 8.429 3.448 14.248 2.315 5.269-1.027 9.568-3.327 13.519-5.596 0.346-0.199 0.717-0.414 1.203-0.697 2.7-1.495 3.108-1.737 3.516-1.98l-2.267 1.249c1.921-1.126 3.908-2.29 6.027-3.38 2.396-1.233 4.63-2.195 6.83-2.942 1.525-0.515 3.111-0.937 4.714-1.252 1.519-0.299 3.104-0.512 4.711-0.634 2.926-0.222 5.991-0.159 9.37 0.194 2.793 0.288 6.071 0.718 9.208 1.728 3.031 0.98 5.779 2.347 8.435 3.669 0.482 0.24 0.98 0.488 1.466 0.726 6.468 3.174 13.027 6.769 19.492 10.688l-0.015 0.009z"></path>
<path fill="#ffe492" style="fill: var(--color1, #ffe492)" opacity="0.3" d="M132.102 29.739c-6.409-3.962-12.86-7.602-19.175-10.819-0.537-0.274-1.088-0.561-1.622-0.839-2.542-1.323-5.17-2.691-8.117-3.633-3.136-0.997-6.419-1.315-9.218-1.495-6.857-0.452-12.916 0.271-18.524 2.211-4.465 1.552-8.293 3.627-11.995 5.635-0.747 0.405-1.521 0.825-2.272 1.224-0.46 0.245-0.867 0.459-1.246 0.657-1.761 0.916-4.104 2.091-6.607 3.050-2.515 0.964-4.894 1.604-7.273 1.955-2.594 0.383-5.183 0.386-7.487 0.008-1.281-0.21-2.47-0.537-3.533-0.973-1.148-0.47-2.162-1.072-3.015-1.789-0.091-0.077-0.165-0.142-0.239-0.209l0.009 0.008c-1.306-1.173-2.185-2.505-3.034-3.793-0.205-0.312-0.418-0.634-0.632-0.947-1.126-1.651-2.348-3.070-3.738-4.337-0.156-0.143-0.332-0.299-0.511-0.453l-0.030-0.026c-3.342-2.864-7.871-5.246-13.096-6.888-6.152-1.926-12.601-2.73-18.159-2.264-3.766 0.323-7.527 1.678-9.358 3.371-1.274 1.179-1.618 2.496-0.996 3.81l-0.020 0.003c-0.325-0.687-0.392-1.372-0.197-2.038 0.18-0.615 0.582-1.215 1.195-1.783 0.94-0.87 2.365-1.652 4.122-2.264 1.63-0.567 3.495-0.963 5.251-1.113 2.919-0.245 6.065-0.144 9.351 0.3 2.967 0.401 5.935 1.062 8.82 1.966 5.229 1.643 9.76 4.026 13.104 6.892 0.183 0.157 0.365 0.318 0.541 0.479 1.39 1.268 2.613 2.687 3.74 4.339 0.214 0.313 0.426 0.635 0.632 0.947 0.849 1.287 1.726 2.619 3.031 3.79 0.075 0.068 0.153 0.135 0.23 0.2 3.050 2.566 8.288 3.594 14.013 2.749 5.219-0.77 9.751-2.86 13.871-5.003 0.378-0.197 0.786-0.412 1.246-0.656 0.752-0.4 1.525-0.819 2.272-1.224 3.703-2.008 7.532-4.084 11.999-5.636 1.224-0.446 2.778-0.896 4.368-1.255l0.278-0.053c1.502-0.33 3.062-0.584 4.635-0.755 2.925-0.318 5.953-0.367 9.257-0.149 2.8 0.18 6.086 0.498 9.226 1.497 2.949 0.942 5.578 2.311 8.121 3.635 0.534 0.278 1.085 0.565 1.622 0.839 6.315 3.218 12.767 6.858 19.176 10.82l-0.015 0.009z"></path>
<path fill="#ffe492" style="fill: var(--color1, #ffe492)" opacity="0.3" d="M131.874 29.618c-6.352-4.005-12.697-7.69-18.858-10.952-0.566-0.3-1.149-0.617-1.712-0.924-2.449-1.334-4.982-2.714-7.869-3.625-3.149-0.989-6.435-1.194-9.234-1.263-6.597-0.177-12.573 0.717-18.266 2.732-3.994 1.42-7.553 3.217-10.996 4.955-1.184 0.598-2.302 1.162-3.439 1.713-0.462 0.224-0.884 0.426-1.288 0.616-2.609 1.226-4.78 2.112-6.832 2.789-2.574 0.849-4.995 1.38-7.401 1.623-0.832 0.089-1.798 0.14-2.775 0.141h-0.001c-1.618 0-3.184-0.147-4.626-0.438-2.609-0.527-4.761-1.5-6.396-2.891-0.090-0.077-0.164-0.143-0.238-0.209l0.009 0.008c-1.287-1.162-2.189-2.471-3.062-3.736-0.221-0.321-0.45-0.652-0.68-0.974-1.174-1.647-2.425-3.054-3.824-4.301-0.153-0.137-0.332-0.292-0.513-0.445l-0.036-0.030c-3.387-2.838-7.951-5.187-13.198-6.794-6.194-1.889-12.661-2.649-18.209-2.14-3.782 0.354-7.434 1.684-9.304 3.386-1.3 1.184-1.69 2.509-1.128 3.833l-0.021 0.003c-0.293-0.691-0.332-1.381-0.116-2.050 0.201-0.619 0.62-1.222 1.246-1.793 0.95-0.865 2.369-1.645 4.104-2.257 1.612-0.568 3.464-0.971 5.214-1.135 2.915-0.268 6.065-0.189 9.361 0.232 2.975 0.381 5.956 1.023 8.861 1.909 5.25 1.608 9.816 3.958 13.205 6.798 0.186 0.156 0.371 0.315 0.549 0.475 1.4 1.248 2.652 2.655 3.826 4.303 0.23 0.322 0.459 0.654 0.68 0.974 0.873 1.265 1.775 2.573 3.060 3.734 0.064 0.058 0.138 0.124 0.213 0.188l0.015 0.012c3.054 2.598 8.075 3.758 13.777 3.183 5.428-0.548 10.236-2.536 14.223-4.409 1.142-0.514 1.565-0.72 1.986-0.928l-0.698 0.312c1.137-0.551 2.255-1.115 3.439-1.713 3.443-1.738 7.003-3.536 10.998-4.956 1.163-0.436 2.691-0.904 4.25-1.295l0.327-0.069c1.488-0.363 3.022-0.658 4.559-0.877 2.931-0.418 5.922-0.579 9.143-0.493 2.802 0.070 6.091 0.275 9.243 1.265 2.89 0.912 5.423 2.292 7.873 3.627 0.564 0.307 1.146 0.624 1.712 0.924 6.162 3.262 12.507 6.947 18.86 10.953l-0.015 0.009z"></path>
<path fill="#ffe492" style="fill: var(--color1, #ffe492)" opacity="0.3" d="M131.648 29.497c-6.384-4.106-12.449-7.732-18.542-11.084-0.582-0.32-1.154-0.646-1.76-0.992-2.369-1.352-4.819-2.749-7.662-3.635-3.188-0.988-6.619-1.071-9.251-1.032-6.297 0.081-12.188 1.145-18.009 3.253-3.493 1.271-6.717 2.797-9.835 4.273-1.639 0.776-3.187 1.508-4.766 2.204-0.469 0.207-0.904 0.395-1.331 0.575-2.645 1.118-4.887 1.921-7.057 2.527-2.634 0.736-5.096 1.158-7.528 1.291-1.25 0.068-2.49 0.055-3.688-0.038-1.268-0.099-2.489-0.289-3.629-0.565-2.525-0.611-4.626-1.627-6.244-3.020-0.089-0.077-0.163-0.143-0.236-0.209l0.009 0.008c-1.265-1.15-2.19-2.434-3.085-3.675-0.239-0.331-0.486-0.674-0.734-1.007-1.223-1.644-2.503-3.039-3.912-4.265-0.149-0.13-0.33-0.284-0.513-0.435l-0.044-0.035c-3.432-2.812-8.031-5.128-13.299-6.699-4.862-1.444-9.876-2.197-14.474-2.197-1.3 0-2.565 0.060-3.786 0.182-3.737 0.38-7.366 1.714-9.247 3.398-1.327 1.189-1.765 2.523-1.264 3.859l-0.021 0.003c-0.261-0.697-0.272-1.391-0.033-2.064 0.222-0.624 0.659-1.231 1.3-1.804 0.959-0.859 2.372-1.636 4.085-2.247 1.617-0.577 3.407-0.977 5.175-1.156 2.912-0.29 6.065-0.235 9.371 0.164 2.982 0.36 5.977 0.983 8.902 1.852 5.271 1.572 9.872 3.89 13.306 6.703 0.226 0.185 0.407 0.338 0.586 0.495l-0.029-0.025c1.41 1.227 2.69 2.623 3.914 4.268 0.248 0.333 0.496 0.675 0.734 1.007 0.895 1.241 1.819 2.523 3.083 3.673 0.063 0.057 0.136 0.123 0.211 0.187l0.016 0.013c3.026 2.604 7.962 3.922 13.542 3.617 5.647-0.309 10.755-2.201 14.575-3.816 1.099-0.444 1.537-0.637 1.973-0.834l-0.643 0.258c1.578-0.695 3.126-1.428 4.765-2.203 3.119-1.476 6.343-3.003 9.837-4.274 2.997-1.085 5.938-1.876 8.991-2.418 2.945-0.523 5.898-0.796 9.029-0.836 1.786-0.026 3.244 0.019 4.586 0.144 1.734 0.161 3.263 0.452 4.675 0.889 2.846 0.886 5.297 2.285 7.667 3.637 0.606 0.346 1.178 0.672 1.759 0.992 6.094 3.352 12.16 6.978 18.544 11.085l-0.016 0.009z"></path>
<path fill="#ffe492" style="fill: var(--color1, #ffe492)" opacity="0.3" d="M131.421 29.375c-6.325-4.151-12.287-7.82-18.227-11.217-0.587-0.336-1.167-0.682-1.78-1.049-2.298-1.373-4.675-2.793-7.483-3.656-3.215-0.984-6.641-0.944-9.268-0.8-5.942 0.315-11.749 1.549-17.751 3.774-2.957 1.101-5.773 2.362-8.496 3.58-2.153 0.963-4.186 1.874-6.272 2.705-0.471 0.188-0.934 0.368-1.373 0.535-2.65 1.003-5.032 1.744-7.282 2.265-2.694 0.624-5.199 0.938-7.656 0.959-1.25 0.011-2.486-0.057-3.673-0.202-1.244-0.152-2.441-0.39-3.559-0.707-2.439-0.692-4.489-1.752-6.093-3.148-0.088-0.077-0.162-0.143-0.234-0.21l0.009 0.008c-1.241-1.136-2.187-2.393-3.101-3.608-0.259-0.344-0.526-0.699-0.795-1.045-1.273-1.641-2.581-3.024-3.998-4.23-0.146-0.125-0.329-0.278-0.515-0.428l-0.049-0.038c-3.477-2.786-8.111-5.070-13.4-6.605-6.278-1.815-12.781-2.487-18.31-1.891-3.688 0.404-7.293 1.742-9.185 3.407-1.357 1.195-1.843 2.54-1.405 3.888l-0.021 0.002c-0.229-0.703-0.211-1.403 0.052-2.080 0.245-0.629 0.701-1.24 1.356-1.817 0.969-0.853 2.374-1.626 4.065-2.236 1.599-0.577 3.374-0.983 5.134-1.176 2.909-0.313 6.065-0.281 9.381 0.097 2.989 0.34 5.997 0.944 8.942 1.795 5.292 1.536 9.928 3.822 13.407 6.609 0.234 0.187 0.417 0.339 0.599 0.495l-0.034-0.029c1.418 1.206 2.726 2.59 4 4.231 0.269 0.346 0.537 0.701 0.796 1.045 0.914 1.214 1.859 2.47 3.099 3.606 0.062 0.057 0.135 0.123 0.209 0.188l0.015 0.013c3.058 2.662 7.784 4.101 13.306 4.052 4.481-0.040 9.224-1.064 14.927-3.222 0.439-0.167 0.901-0.346 1.372-0.535 2.085-0.832 4.119-1.742 6.27-2.705 2.724-1.219 5.54-2.48 8.498-3.581 3.026-1.122 5.919-1.97 8.846-2.596 2.964-0.633 5.88-1.019 8.914-1.18 2.629-0.144 6.060-0.184 9.279 0.802 2.811 0.864 5.189 2.285 7.488 3.659 0.613 0.366 1.192 0.713 1.78 1.048 5.94 3.397 11.902 7.066 18.227 11.217l-0.016 0.009z"></path>
<path fill="#ffe492" style="fill: var(--color1, #ffe492)" opacity="0.3" d="M131.194 29.254c-6.266-4.196-12.124-7.909-17.911-11.349-0.587-0.349-1.167-0.712-1.781-1.096-2.233-1.398-4.542-2.843-7.323-3.687-3.245-0.98-6.666-0.819-9.284-0.569-5.592 0.524-11.15 1.888-17.494 4.295-2.38 0.907-4.705 1.901-6.953 2.863-2.731 1.168-5.31 2.271-7.981 3.232-0.481 0.173-0.958 0.34-1.415 0.494-2.697 0.909-5.153 1.564-7.507 2.002-1.319 0.245-2.62 0.423-3.869 0.528-1.332 0.112-2.649 0.146-3.914 0.1-2.567-0.093-4.972-0.502-7.146-1.216-2.349-0.77-4.347-1.872-5.941-3.276-0.091-0.081-0.164-0.147-0.236-0.213l0.013 0.012c-1.215-1.12-2.177-2.346-3.108-3.532-0.282-0.359-0.573-0.73-0.866-1.091-1.325-1.638-2.661-3.010-4.085-4.194-0.142-0.12-0.329-0.271-0.517-0.419l-0.055-0.042c-3.523-2.76-8.191-5.011-13.501-6.511-6.32-1.778-12.841-2.405-18.361-1.766-5.91 0.695-11.669 3.695-10.668 7.333l-0.021 0.002c-0.25-0.91-0.104-1.806 0.436-2.664 0.493-0.784 1.302-1.521 2.404-2.192 1.025-0.624 2.255-1.162 3.655-1.601 1.332-0.417 2.78-0.725 4.189-0.89 2.905-0.336 6.065-0.327 9.391 0.029 2.996 0.32 6.018 0.905 8.983 1.739 5.313 1.5 9.984 3.753 13.509 6.514 0.243 0.19 0.429 0.341 0.613 0.495l-0.041-0.033c1.425 1.185 2.762 2.557 4.087 4.196 0.293 0.361 0.584 0.732 0.866 1.092 0.93 1.186 1.892 2.412 3.106 3.531 0.061 0.057 0.134 0.123 0.207 0.188l0.016 0.014c3.062 2.698 7.704 4.291 13.071 4.486 4.543 0.165 9.541-0.695 15.279-2.629 0.458-0.154 0.934-0.321 1.415-0.494 2.67-0.961 5.25-2.064 7.98-3.232 2.249-0.962 4.574-1.956 6.954-2.863 6.346-2.407 11.907-3.772 17.502-4.297 1.759-0.168 3.215-0.222 4.584-0.169 1.749 0.067 3.29 0.309 4.713 0.739 2.784 0.845 5.094 2.291 7.329 3.689 0.614 0.384 1.194 0.747 1.781 1.096 5.786 3.44 11.645 7.153 17.911 11.349l-0.015 0.009z"></path>
<path fill="#ffe492" style="fill: var(--color1, #ffe492)" opacity="0.3" d="M130.967 29.133c-6.206-4.242-11.961-7.998-17.594-11.481-0.583-0.36-1.159-0.738-1.768-1.138-2.173-1.424-4.42-2.897-7.178-3.723-3.316-0.988-6.896-0.666-9.3-0.337-6.527 0.881-12.375 2.929-17.236 4.816-1.747 0.681-3.489 1.402-5.175 2.1-3.38 1.399-6.573 2.721-9.925 3.804-0.493 0.159-0.983 0.312-1.458 0.454-2.75 0.82-5.279 1.389-7.732 1.74-2.781 0.398-5.442 0.498-7.911 0.297-2.536-0.206-4.912-0.718-7.061-1.522-2.254-0.843-4.202-1.988-5.789-3.404-0.090-0.081-0.162-0.147-0.234-0.213l0.012 0.011c-1.184-1.099-2.159-2.292-3.101-3.446-0.309-0.378-0.628-0.769-0.949-1.149-1.396-1.659-2.722-2.98-4.172-4.158-0.14-0.116-0.329-0.265-0.519-0.413l-0.060-0.045c-3.568-2.734-8.272-4.952-13.602-6.416-6.362-1.741-12.901-2.324-18.411-1.642-5.931 0.744-11.573 3.704-10.746 7.371l-0.021 0.002c-0.205-0.91-0.028-1.805 0.527-2.661 0.508-0.784 1.322-1.523 2.419-2.194 1.023-0.626 2.246-1.169 3.636-1.613 1.324-0.423 2.77-0.74 4.181-0.917 2.902-0.359 6.065-0.372 9.401-0.039 3.004 0.3 6.039 0.866 9.023 1.682 5.334 1.465 10.040 3.685 13.61 6.42 0.253 0.194 0.442 0.343 0.628 0.496l-0.048-0.038c1.451 1.179 2.778 2.501 4.174 4.16 0.321 0.38 0.64 0.771 0.949 1.149 0.942 1.153 1.916 2.346 3.1 3.444 0.073 0.068 0.147 0.135 0.221 0.202 3.086 2.751 7.645 4.499 12.836 4.92 4.656 0.378 9.768-0.288 15.63-2.036 0.475-0.142 0.965-0.294 1.458-0.453 3.351-1.082 6.544-2.404 9.924-3.803 1.685-0.698 3.428-1.419 5.175-2.1 3.268-1.269 5.987-2.206 8.556-2.95 3.024-0.876 5.866-1.486 8.687-1.867 1.72-0.235 3.219-0.341 4.583-0.325 1.757 0.021 3.305 0.238 4.732 0.664 2.762 0.827 5.010 2.301 7.184 3.726 0.61 0.4 1.186 0.777 1.768 1.138 5.633 3.484 11.389 7.239 17.595 11.482l-0.016 0.009z"></path>
<path fill="#ffe492" style="fill: var(--color1, #ffe492)" opacity="0.3" d="M130.74 29.012c-6.147-4.288-11.799-8.087-17.278-11.614-0.575-0.37-1.143-0.76-1.745-1.174-2.116-1.453-4.302-2.956-7.042-3.765-3.352-0.986-6.923-0.533-9.317-0.106-5.913 1.045-11.188 3.035-16.978 5.337-1.045 0.417-2.101 0.847-3.122 1.263-3.929 1.6-7.992 3.254-12.145 4.45-0.505 0.146-1.010 0.284-1.501 0.413-2.768 0.724-5.446 1.221-7.957 1.477-2.845 0.29-5.549 0.279-8.039-0.034-2.501-0.314-4.848-0.929-6.976-1.829-2.153-0.91-4.050-2.099-5.638-3.531-0.090-0.082-0.162-0.148-0.233-0.214l0.013 0.012c-1.149-1.073-2.129-2.227-3.078-3.343-0.342-0.402-0.695-0.818-1.050-1.222-1.451-1.657-2.804-2.967-4.259-4.122-0.135-0.109-0.326-0.258-0.519-0.404l-0.068-0.049c-3.613-2.708-8.351-4.894-13.703-6.322-6.404-1.703-12.96-2.242-18.462-1.518-5.743 0.765-11.489 3.621-10.825 7.408l-0.021 0.001c-0.159-0.91 0.049-1.804 0.618-2.658 0.523-0.785 1.342-1.524 2.433-2.197 2.012-1.24 4.852-2.176 7.791-2.567 2.899-0.382 6.065-0.418 9.411-0.107 3.011 0.28 6.060 0.827 9.064 1.626 5.355 1.429 10.096 3.616 13.711 6.326 0.261 0.195 0.452 0.344 0.642 0.495l-0.054-0.042c1.456 1.156 2.81 2.466 4.261 4.124 0.355 0.405 0.708 0.82 1.050 1.222 0.948 1.116 1.928 2.269 3.076 3.342 0.060 0.056 0.131 0.122 0.203 0.188l0.016 0.015c3.176 2.867 7.533 4.719 12.6 5.355 4.692 0.589 10.069 0.104 15.983-1.442 0.49-0.129 0.995-0.267 1.5-0.413 4.152-1.196 8.214-2.85 12.142-4.449 1.022-0.416 2.078-0.846 3.123-1.263 2.534-1.007 5.484-2.163 8.411-3.128 3.062-1.009 5.866-1.732 8.573-2.211 1.704-0.304 3.203-0.461 4.582-0.482 1.738-0.026 3.337 0.172 4.751 0.588 1.227 0.362 2.462 0.903 3.776 1.653 1.16 0.662 2.234 1.401 3.273 2.114 0.601 0.413 1.17 0.804 1.745 1.174 5.48 3.527 11.132 7.326 17.279 11.614l-0.016 0.008z"></path>
<path fill="#ffe492" style="fill: var(--color1, #ffe492)" opacity="0.3" d="M130.513 28.891c-6.086-4.334-11.634-8.176-16.962-11.746-0.565-0.378-1.124-0.78-1.715-1.206-2.060-1.483-4.19-3.017-6.914-3.81-2.545-0.739-5.598-0.698-9.334 0.126-5.223 1.145-9.892 3.059-14.836 5.087-0.615 0.252-1.251 0.513-1.885 0.771-0.248 0.101-0.496 0.203-0.744 0.304-4.71 1.924-9.581 3.914-14.69 5.218-0.099 0.042-0.617 0.171-1.138 0.293l-0.404 0.080c-2.829 0.642-5.582 1.050-8.181 1.214-2.91 0.183-5.658 0.061-8.167-0.365-2.462-0.417-4.78-1.136-6.89-2.136-2.045-0.969-3.891-2.2-5.487-3.659-0.089-0.082-0.16-0.148-0.231-0.215l0.013 0.012c-1.105-1.040-2.082-2.147-3.028-3.218-0.383-0.434-0.779-0.882-1.177-1.319-1.507-1.656-2.888-2.954-4.346-4.086-0.131-0.104-0.325-0.251-0.521-0.396l-0.074-0.053c-3.658-2.682-8.432-4.835-13.805-6.228-6.446-1.666-13.020-2.161-18.512-1.393-5.638 0.795-11.375 3.674-10.904 7.446l-0.021 0.001c-0.114-0.91 0.125-1.803 0.709-2.655 0.539-0.786 1.362-1.526 2.447-2.199 2.004-1.243 4.834-2.192 7.764-2.605 2.895-0.405 6.065-0.464 9.421-0.175 3.018 0.259 6.081 0.787 9.105 1.569 5.376 1.393 10.152 3.548 13.812 6.231 0.27 0.197 0.464 0.345 0.656 0.495l-0.061-0.046c1.459 1.133 2.841 2.431 4.348 4.088 0.398 0.437 0.794 0.885 1.177 1.319 0.945 1.071 1.922 2.178 3.027 3.217 0.058 0.055 0.129 0.121 0.201 0.187l0.017 0.016c3.245 2.966 7.521 4.968 12.365 5.789 4.782 0.811 10.278 0.525 16.335-0.849 0.926-0.202 1.444-0.33 1.959-0.465l-0.417 0.093c5.108-1.303 9.977-3.293 14.686-5.217 0.248-0.101 0.496-0.203 0.744-0.304 0.634-0.258 1.269-0.519 1.885-0.771 4.945-2.028 9.615-3.943 14.84-5.088 1.688-0.372 3.186-0.581 4.58-0.638 1.745-0.072 3.35 0.101 4.77 0.513 1.22 0.355 2.439 0.898 3.728 1.661 1.137 0.673 2.182 1.425 3.192 2.153 0.592 0.426 1.15 0.828 1.714 1.206 5.328 3.57 10.877 7.412 16.962 11.746l-0.016 0.008z"></path>
<path fill="#ffe492" style="fill: var(--color1, #ffe492)" opacity="0.3" d="M130.287 28.77c-5.555-4.039-11.156-8.035-16.646-11.878-0.559-0.389-1.113-0.807-1.699-1.249-1.907-1.439-4.070-3.070-6.77-3.845-2.575-0.737-5.633-0.621-9.351 0.357-4.42 1.159-8.332 2.862-12.472 4.666-1.297 0.565-2.638 1.149-3.991 1.713-2.361 0.986-4.915 2.029-7.592 2.979-2.867 1.018-5.487 1.787-8.008 2.352-0.152 0.049-0.687 0.164-1.225 0.272l-0.36 0.060c-2.889 0.561-5.717 0.88-8.404 0.949-2.975 0.076-5.766-0.157-8.297-0.693-4.673-1.002-8.758-3.097-12.14-6.229-0.089-0.083-0.16-0.149-0.23-0.216l0.014 0.013c-1.049-0.994-2.009-2.042-2.938-3.057-0.437-0.477-0.889-0.971-1.344-1.451-1.564-1.655-2.973-2.942-4.433-4.050-0.126-0.098-0.322-0.244-0.52-0.388l-0.082-0.057c-3.703-2.656-8.511-4.777-13.905-6.133-6.487-1.629-13.079-2.079-18.563-1.269-5.672 0.843-11.266 3.685-10.982 7.484l-0.021 0c-0.068-0.91 0.201-1.802 0.8-2.652 0.555-0.787 1.383-1.528 2.461-2.201 1.016-0.634 2.221-1.189 3.58-1.649 1.32-0.446 2.718-0.781 4.157-0.995 2.892-0.427 6.065-0.509 9.431-0.243 3.025 0.239 6.102 0.748 9.145 1.512 5.397 1.358 10.208 3.48 13.913 6.137 0.282 0.201 0.478 0.347 0.673 0.496l-0.070-0.051c1.461 1.109 2.87 2.396 4.435 4.052 0.455 0.481 0.907 0.974 1.344 1.452 0.929 1.014 1.889 2.062 2.937 3.056 0.059 0.056 0.129 0.122 0.2 0.188l0.017 0.015c3.38 3.129 7.46 5.223 12.129 6.224 4.809 1.018 10.579 0.93 16.687-0.256 0.902-0.168 1.436-0.283 1.968-0.406l-0.384 0.074c5.638-1.263 10.796-3.325 15.596-5.329 1.352-0.564 2.693-1.148 3.99-1.712 4.142-1.804 8.054-3.508 12.477-4.668 3.723-0.979 6.787-1.096 9.368-0.357 1.21 0.347 2.411 0.891 3.672 1.664 1.112 0.681 2.126 1.446 3.106 2.185 0.586 0.442 1.14 0.86 1.699 1.249 5.491 3.843 11.091 7.84 16.646 11.879l-0.016 0.008z"></path>
<path fill="#ffe492" style="fill: var(--color1, #ffe492)" opacity="0.3" d="M130.060 28.649c0.504 0.19-4.812-3.753-10.146-7.674l-6.184-4.337c-0.541-0.393-1.079-0.818-1.648-1.269-1.86-1.473-3.969-3.142-6.663-3.904-2.606-0.736-5.669-0.544-9.368 0.588-3.874 1.184-7.434 2.857-10.875 4.474-1.726 0.811-3.511 1.65-5.33 2.426-2.871 1.226-5.286 2.161-7.601 2.944-2.855 0.964-5.526 1.683-8.166 2.196-0.199 0.052-0.751 0.153-1.306 0.247l-0.321 0.045c-2.804 0.457-5.557 0.689-8.191 0.689-0.146 0-0.292-0.001-0.437-0.002-3.045-0.030-5.88-0.375-8.425-1.025-1.229-0.315-2.432-0.716-3.576-1.19-1.239-0.517-2.271-1.040-3.261-1.626l0.12 0.066c-1.815-1.061-3.512-2.341-5.187-3.912-0.090-0.085-0.16-0.151-0.23-0.218l0.015 0.014c-0.972-0.927-1.891-1.896-2.78-2.834-0.513-0.541-1.044-1.101-1.578-1.645-1.646-1.678-3.040-2.916-4.52-4.014-0.123-0.094-0.322-0.239-0.522-0.381l-0.088-0.059c-3.748-2.629-8.591-4.718-14.006-6.039-6.529-1.591-13.139-1.998-18.613-1.144-5.565 0.87-11.152 3.733-11.061 7.522l-0.021 0c-0.042-1.765 1.122-3.443 3.366-4.853 1.015-0.637 2.213-1.196 3.562-1.661 1.312-0.452 2.708-0.796 4.149-1.021 2.889-0.45 6.065-0.555 9.441-0.311 3.033 0.219 6.123 0.709 9.185 1.455 5.418 1.322 10.264 3.412 14.015 6.043 0.291 0.203 0.49 0.348 0.687 0.495l-0.076-0.055c1.481 1.099 2.876 2.337 4.522 4.016 0.534 0.545 1.065 1.104 1.578 1.645 0.889 0.937 1.808 1.906 2.78 2.833 0.056 0.053 0.125 0.119 0.196 0.185l0.019 0.018c3.559 3.339 7.449 5.517 11.894 6.658 6.155 1.572 12.663 1.051 17.039 0.337 0.877-0.138 1.429-0.24 1.977-0.35l-0.351 0.058c6.072-1.18 11.612-3.366 15.761-5.138 1.818-0.776 3.603-1.614 5.328-2.425 3.444-1.618 7.003-3.291 10.879-4.476 1.654-0.507 3.152-0.818 4.578-0.951 1.759-0.164 3.376-0.042 4.808 0.362 1.206 0.341 2.397 0.89 3.637 1.677 1.093 0.694 2.081 1.475 3.035 2.23 0.569 0.45 1.105 0.875 1.647 1.268 11.554 8.282 16.87 12.226 22.169 16.193l-5.838-4.182-0.017 0.008z"></path>
<path fill="#ffe492" style="fill: var(--color1, #ffe492)" opacity="0.3" d="M129.833 28.528l-16.014-12.143c-0.523-0.397-1.042-0.828-1.592-1.285-1.814-1.507-3.872-3.216-6.561-3.965-2.6-0.725-5.757-0.449-9.384 0.82-3.486 1.22-6.666 2.842-9.741 4.411-2.004 1.023-4.077 2.080-6.206 3.010-6.401 2.797-11.995 4.449-17.603 5.199-2.327 0.311-4.623 0.468-6.849 0.468-0.675 0-1.343-0.014-2.004-0.043-3.117-0.136-5.995-0.592-8.553-1.356-2.371-0.708-4.54-1.708-6.631-3.057-1.669-1.077-3.27-2.361-5.036-4.041-0.932-0.886-1.835-1.807-2.708-2.698-1.976-2.016-4.019-4.1-6.548-5.934-3.879-2.813-8.972-5.020-14.726-6.381-6.57-1.554-13.198-1.916-18.663-1.020-5.291 0.867-11.034 3.603-11.14 7.56l-0.021-0c0.047-1.769 1.248-3.446 3.472-4.852 2.011-1.271 4.74-2.237 7.684-2.72 2.885-0.473 6.065-0.6 9.451-0.378 3.040 0.199 6.144 0.67 9.226 1.399 2.847 0.673 5.552 1.56 8.038 2.634 2.507 1.084 4.76 2.345 6.697 3.75 2.53 1.835 4.574 3.92 6.55 5.936 0.873 0.891 1.776 1.811 2.708 2.698 2.577 2.451 6.231 5.472 11.658 7.093 6.224 1.859 12.892 1.532 17.391 0.931 5.607-0.75 11.198-2.401 17.596-5.197 2.128-0.93 4.201-1.987 6.205-3.010 3.076-1.569 6.256-3.192 9.744-4.412 3.633-1.271 6.796-1.547 9.404-0.82 1.204 0.336 2.382 0.889 3.603 1.692 1.074 0.707 2.036 1.505 2.965 2.277 0.549 0.457 1.069 0.888 1.592 1.284l16.014 12.143-0.017 0.008z"></path>
<path fill="#ffe492" style="fill: var(--color1, #ffe492)" opacity="0.3" d="M129.704 27.594c-4.078-3.381-7.577-6.125-11.011-8.634-1.142-0.859-2.79-2.032-4.459-3.177l-0.601-0.39c-0.512-0.347-1.018-0.716-1.554-1.107-1.348-0.982-2.742-1.998-4.346-2.752-0.861-0.406-1.691-0.696-2.535-0.888-2.592-0.595-5.632-0.201-9.038 1.168-1.762 0.708-3.367 1.514-4.704 2.208-1.415 0.735-2.812 1.546-4.163 2.331-1.941 1.127-3.949 2.293-6.106 3.294-1.313 0.611-2.644 1.157-3.956 1.623-2.625 0.932-5.444 1.7-8.375 2.282-1.811 0.356-3.632 0.625-5.41 0.8-1.532 0.15-3.068 0.236-4.563 0.257-2.239 0.031-4.42-0.088-6.483-0.353-2.194-0.282-4.269-0.733-6.17-1.339-1.695-0.541-3.295-1.222-4.893-2.082-2.978-1.601-5.353-3.453-7.090-4.887-0.853-0.708-1.686-1.43-2.491-2.128-2.32-2.011-4.51-3.91-7.252-5.601-2.236-1.371-4.787-2.553-7.584-3.516-2.149-0.74-4.486-1.344-6.946-1.798-0.233-0.056-0.836-0.16-1.442-0.255l-0.333-0.043c-2.545-0.387-5.411-0.64-8.516-0.75-3.131-0.114-5.84-0.015-8.281 0.301-1.38 0.177-2.717 0.456-3.974 0.827-4.439 1.311-7.29 3.512-7.625 5.888l-0.027-0.001c0.089-0.633 0.352-1.257 0.78-1.854 0.407-0.567 0.965-1.114 1.66-1.626 1.313-0.967 3.111-1.804 5.2-2.421 1.259-0.372 2.598-0.651 3.981-0.828 2.444-0.317 5.155-0.415 8.288-0.301 3.107 0.11 5.974 0.363 8.521 0.75 0.939 0.138 1.542 0.243 2.142 0.356l-0.366-0.058c2.462 0.454 4.801 1.059 6.952 1.799 2.798 0.963 5.351 2.147 7.589 3.518 2.743 1.693 4.935 3.592 7.255 5.603 0.805 0.698 1.638 1.42 2.491 2.128 1.736 1.434 4.11 3.284 7.086 4.885 1.596 0.859 3.195 1.54 4.888 2.080 3.719 1.187 7.972 1.756 12.639 1.691 1.495-0.021 3.029-0.107 4.561-0.257 1.777-0.175 3.596-0.443 5.406-0.799 2.931-0.582 5.747-1.35 8.37-2.281 1.312-0.465 2.642-1.011 3.953-1.622 2.157-1.001 4.164-2.166 6.105-3.293 1.351-0.784 2.747-1.596 4.164-2.331 1.338-0.695 2.943-1.501 4.707-2.209 1.516-0.61 2.984-1.031 4.363-1.253 1.695-0.272 3.275-0.244 4.698 0.083 0.847 0.192 1.678 0.484 2.542 0.89 1.606 0.755 3.001 1.772 4.35 2.755 0.537 0.391 1.043 0.76 1.554 1.107 2.27 1.534 3.918 2.707 5.545 3.908l-0.484-0.341c3.434 2.51 6.933 5.253 11.011 8.635l-0.022 0.009z"></path>
<path fill="#ffe492" style="fill: var(--color1, #ffe492)" opacity="0.3" d="M129.575 26.66c-3.781-3.438-7.329-6.315-10.848-8.796-1.399-1.007-3.12-2.149-4.881-3.234l-0.397-0.228c-0.474-0.288-0.942-0.587-1.438-0.904-1.484-0.948-3.018-1.929-4.737-2.608-0.868-0.344-1.699-0.584-2.542-0.733-3.229-0.57-6.508 0.51-8.691 1.517-1.546 0.711-2.959 1.515-4.39 2.345-1.252 0.727-2.43 1.508-3.678 2.335-1.852 1.228-3.766 2.498-5.932 3.564-1.092 0.558-2.41 1.111-3.772 1.571l-0.216 0.064c-2.534 0.836-5.309 1.485-8.484 1.984-1.495 0.251-3.354 0.462-5.237 0.583l-0.171 0.009c-1.529 0.094-3.055 0.128-4.536 0.1-2.203-0.041-4.357-0.227-6.401-0.553-2.147-0.342-4.196-0.842-6.089-1.485-1.659-0.564-3.261-1.263-4.897-2.139-2.971-1.587-5.517-3.347-7.402-4.702-0.698-0.502-1.385-1.007-2.049-1.495-2.646-1.945-5.144-3.783-8.182-5.331-2.27-1.157-4.819-2.135-7.575-2.907-2.085-0.584-4.296-1.022-6.757-1.339-0.28-0.044-0.869-0.113-1.461-0.174l-0.257-0.021c-2.51-0.248-5.189-0.341-8.43-0.438-2.336-0.073-5.395-0.122-8.333 0.159-1.392 0.13-2.737 0.357-3.998 0.673-4.442 1.112-7.456 3.055-8.061 5.198l-0.032-0.003c0.161-0.568 0.486-1.125 0.966-1.656 0.458-0.506 1.059-0.991 1.788-1.442 1.385-0.857 3.226-1.588 5.326-2.114 1.264-0.316 2.612-0.543 4.006-0.674 2.941-0.281 6.002-0.232 8.34-0.159 3.242 0.097 5.922 0.191 8.434 0.439 0.572 0.057 1.15 0.122 1.719 0.195 2.464 0.317 4.676 0.755 6.764 1.34 2.759 0.773 5.31 1.752 7.583 2.91 3.040 1.549 5.54 3.387 8.186 5.333 0.664 0.488 1.351 0.993 2.049 1.495 1.885 1.355 4.429 3.114 7.399 4.7 1.634 0.874 3.234 1.573 4.891 2.136 3.723 1.266 7.921 1.951 12.476 2.036 1.48 0.028 3.004-0.006 4.531-0.1 1.81-0.113 3.628-0.312 5.403-0.591 3.172-0.499 5.945-1.148 8.477-1.983 1.576-0.523 2.892-1.076 4.159-1.713l-0.176 0.080c2.165-1.065 4.078-2.335 5.929-3.562 1.248-0.828 2.426-1.609 3.679-2.336 1.431-0.831 2.844-1.635 4.392-2.347 1.415-0.653 2.811-1.122 4.149-1.396 1.622-0.332 3.16-0.373 4.571-0.124 0.846 0.15 1.681 0.39 2.551 0.735 1.721 0.68 3.257 1.662 4.743 2.611 0.495 0.317 0.963 0.616 1.437 0.904 2.16 1.313 3.882 2.456 5.562 3.653l-0.282-0.191c3.519 2.481 7.069 5.359 10.85 8.798l-0.027 0.011z"></path>
<path fill="#ffe492" style="fill: var(--color1, #ffe492)" opacity="0.3" d="M129.446 25.727c-3.539-3.542-7.034-6.472-10.686-8.957-1.518-1.053-3.314-2.165-5.166-3.189l-0.332-0.168c-0.402-0.219-0.817-0.451-1.218-0.675-1.654-0.927-3.364-1.886-5.232-2.489-0.876-0.285-1.711-0.474-2.55-0.578-3.222-0.398-6.317 0.794-8.346 1.865-1.375 0.723-2.632 1.542-3.848 2.334l-0.228 0.148c-1.104 0.719-2.139 1.507-3.235 2.342-1.746 1.329-3.551 2.703-5.716 3.833-1.26 0.662-2.613 1.216-4.020 1.647-2.454 0.751-5.185 1.287-8.594 1.686-1.763 0.207-3.581 0.336-5.406 0.383-1.525 0.038-3.042 0.019-4.508-0.058-4.44-0.231-8.588-1.034-12.33-2.385-1.618-0.584-3.22-1.302-4.9-2.195-2.842-1.508-5.37-3.058-7.715-4.517-0.315-0.195-0.626-0.39-0.934-0.582-3.203-1.999-6.229-3.887-9.784-5.34-2.321-0.949-4.868-1.722-7.568-2.299-1.982-0.424-4.131-0.711-6.568-0.88-0.371-0.029-0.948-0.062-1.527-0.087l-0.134-0.005c-1.39-0.058-2.865-0.067-4.426-0.077-1.254-0.008-2.551-0.016-3.919-0.050-2.643-0.070-5.638-0.15-8.386 0.017-1.418 0.086-2.771 0.26-4.022 0.518-4.44 0.915-7.617 2.601-8.497 4.508l-0.036-0.006c0.232-0.503 0.62-0.994 1.152-1.458 0.509-0.444 1.154-0.868 1.915-1.258 1.457-0.747 3.343-1.372 5.453-1.807 1.254-0.258 2.61-0.433 4.031-0.519 2.751-0.167 5.747-0.087 8.391-0.017 1.367 0.033 2.664 0.042 3.918 0.050 1.562 0.010 3.037 0.019 4.428 0.077 0.553 0.024 1.112 0.055 1.662 0.092 2.44 0.168 4.591 0.456 6.576 0.881 2.704 0.578 5.253 1.352 7.576 2.302 3.559 1.454 6.586 3.343 9.79 5.343 0.309 0.193 0.62 0.387 0.934 0.582 2.345 1.458 4.872 3.008 7.713 4.516 1.678 0.892 3.279 1.609 4.894 2.193 3.737 1.349 7.88 2.151 12.313 2.382 1.465 0.077 2.98 0.096 4.503 0.057 1.822-0.048 3.639-0.177 5.4-0.383 3.406-0.399 6.134-0.934 8.584-1.684 1.405-0.43 2.754-0.983 4.012-1.644 2.163-1.129 3.967-2.502 5.712-3.83 1.097-0.835 2.133-1.624 3.237-2.343l0.227-0.148c1.216-0.793 2.474-1.612 3.851-2.336 2.035-1.074 5.14-2.27 8.377-1.87 0.843 0.104 1.681 0.294 2.561 0.58 1.872 0.604 3.584 1.564 5.24 2.492 0.4 0.224 0.815 0.457 1.216 0.675 2.185 1.192 3.982 2.305 5.718 3.5l-0.217-0.141c3.654 2.486 7.15 5.417 10.69 8.96l-0.032 0.011z"></path>
<path fill="#ffe492" style="fill: var(--color1, #ffe492)" opacity="0.3" d="M129.317 24.793c-3.249-3.596-6.79-6.664-10.523-9.119-1.815-1.197-3.738-2.291-5.716-3.252-0.286-0.139-0.578-0.283-0.861-0.422-1.869-0.921-3.802-1.873-5.861-2.394-0.884-0.226-1.721-0.365-2.558-0.423-3.213-0.223-6.124 1.080-7.999 2.213-1.166 0.7-2.217 1.477-3.234 2.23-0.176 0.13-0.352 0.26-0.528 0.39-0.967 0.711-1.872 1.506-2.829 2.346-1.627 1.43-3.311 2.908-5.463 4.103-1.264 0.702-2.589 1.245-4.052 1.659-3.059 0.867-6.116 1.188-8.703 1.388-1.75 0.135-3.568 0.194-5.403 0.175-1.521-0.017-3.028-0.090-4.48-0.215-4.306-0.37-8.4-1.289-12.168-2.731-1.568-0.6-3.171-1.336-4.903-2.252-1.749-0.922-3.379-1.81-4.955-2.668-1.071-0.583-2.083-1.135-3.072-1.663-3.736-1.999-7.157-3.756-11.205-5.019-2.371-0.74-4.915-1.309-7.561-1.692-1.896-0.274-3.923-0.408-6.379-0.421-0.53-0.002-1.069 0.001-1.604 0.011-0.812 0.016-1.651 0.049-2.54 0.084-1.705 0.067-3.638 0.143-5.721 0.101-0.793-0.016-1.602-0.039-2.384-0.062-2.013-0.057-4.093-0.117-6.054-0.064-1.44 0.039-2.801 0.161-4.047 0.364-4.433 0.721-7.772 2.148-8.933 3.819l-0.040-0.010c0.304-0.438 0.754-0.862 1.338-1.26 0.561-0.383 1.248-0.744 2.042-1.075 1.53-0.636 3.46-1.155 5.581-1.499 1.248-0.203 2.613-0.326 4.056-0.365 1.963-0.053 4.044 0.006 6.058 0.064 0.782 0.022 1.591 0.045 2.384 0.062 2.080 0.043 4.012-0.033 5.716-0.101 0.889-0.035 1.729-0.068 2.541-0.084 0.535-0.010 1.075-0.013 1.605-0.011 2.459 0.013 4.489 0.146 6.389 0.421 2.649 0.383 5.196 0.953 7.57 1.694 1.828 0.571 3.681 1.293 5.665 2.21 1.775 0.82 3.502 1.718 5.55 2.813 0.988 0.529 2 1.080 3.072 1.663 1.576 0.858 3.206 1.746 4.955 2.668 1.73 0.914 3.332 1.65 4.897 2.249 3.762 1.44 7.85 2.358 12.151 2.727 1.451 0.125 2.957 0.197 4.475 0.215 1.834 0.019 3.65-0.040 5.397-0.175 2.584-0.199 5.637-0.52 8.691-1.386 1.459-0.414 2.781-0.955 4.041-1.655 2.148-1.193 3.831-2.671 5.457-4.099 0.958-0.841 1.863-1.636 2.832-2.348 0.176-0.129 0.352-0.259 0.527-0.39 1.018-0.753 2.070-1.531 3.236-2.232 1.221-0.737 2.473-1.303 3.722-1.684 1.48-0.451 2.931-0.632 4.313-0.536 0.841 0.058 1.682 0.197 2.57 0.424 2.064 0.523 4 1.476 5.872 2.398 0.283 0.139 0.576 0.283 0.861 0.422 1.98 0.962 3.904 2.057 5.721 3.254 1.982 1.304 3.924 2.789 5.77 4.414 1.632 1.437 3.233 3.021 4.759 4.709l-0.036 0.012z"></path>
<path fill="#ffe492" style="fill: var(--color1, #ffe492)" opacity="0.3" d="M129.187 23.859c-3.007-3.699-6.492-6.821-10.36-9.28-1.865-1.189-3.862-2.248-5.935-3.147-0.099-0.043-0.197-0.086-0.296-0.129-2.156-0.936-4.385-1.905-6.7-2.34-0.897-0.169-1.737-0.256-2.566-0.268-3.2-0.043-5.929 1.369-7.654 2.561-1.015 0.697-1.917 1.462-2.789 2.201-0.215 0.183-0.439 0.372-0.658 0.556-0.838 0.701-1.617 1.498-2.442 2.342-1.5 1.535-3.050 3.123-5.192 4.383-1.239 0.729-2.575 1.276-4.085 1.672-2.973 0.78-5.993 0.985-8.813 1.090-1.739 0.065-3.556 0.054-5.401-0.033-1.515-0.073-3.013-0.199-4.451-0.372-4.16-0.501-8.199-1.537-12.006-3.077-1.524-0.617-3.083-1.35-4.906-2.308-3.463-1.816-6.035-3.094-8.339-4.146-4.581-2.092-8.078-3.323-11.692-4.116-2.419-0.531-4.96-0.895-7.553-1.084-1.799-0.131-3.708-0.119-6.19 0.038-0.509 0.033-1.029 0.071-1.547 0.114-0.489 0.042-0.986 0.089-1.512 0.139-1.943 0.186-4.144 0.396-6.664 0.357-1.328-0.021-2.685-0.077-3.997-0.132-1.491-0.062-3.033-0.127-4.495-0.135-1.466-0.009-2.836 0.062-4.071 0.21-4.418 0.528-7.921 1.699-9.369 3.131l-0.041-0.015c0.376-0.372 0.889-0.729 1.524-1.062 0.613-0.321 1.342-0.621 2.169-0.891 1.605-0.525 3.579-0.937 5.708-1.191 1.239-0.148 2.612-0.219 4.081-0.21 1.463 0.009 3.006 0.073 4.497 0.135 1.312 0.055 2.668 0.111 3.995 0.132 2.515 0.039 4.715-0.171 6.655-0.357 0.526-0.050 1.024-0.098 1.513-0.139 0.518-0.043 1.039-0.082 1.548-0.115 2.486-0.158 4.398-0.169 6.201-0.038 2.597 0.189 5.141 0.554 7.564 1.086 3.618 0.794 7.119 2.026 11.704 4.12 2.304 1.052 4.877 2.331 8.341 4.147 1.821 0.957 3.378 1.69 4.901 2.306 3.801 1.538 7.835 2.572 11.988 3.073 1.437 0.174 2.933 0.299 4.446 0.372 1.843 0.086 3.658 0.097 5.394 0.033 2.816-0.105 5.83-0.309 8.797-1.087 1.504-0.394 2.835-0.939 4.070-1.666 2.137-1.258 3.686-2.843 5.185-4.377 0.825-0.845 1.605-1.642 2.444-2.344 0.22-0.184 0.443-0.373 0.658-0.556 0.872-0.74 1.775-1.505 2.792-2.203 1.126-0.778 2.307-1.393 3.509-1.829 1.408-0.51 2.816-0.76 4.183-0.741 0.834 0.011 1.678 0.099 2.579 0.269 2.322 0.437 4.555 1.407 6.714 2.345 0.099 0.043 0.197 0.086 0.296 0.129 2.075 0.9 4.074 1.96 5.941 3.151 3.871 2.461 7.359 5.586 10.368 9.287l-0.043 0.012z"></path>
<path fill="#ffe492" style="fill: var(--color1, #ffe492)" opacity="0.3" d="M72.763 23.486c-0.12 0-0.238-0-0.355-0.001-1.73-0.004-3.546-0.085-5.399-0.241-1.51-0.129-2.998-0.308-4.423-0.53-2.037-0.317-4.081-0.773-6.076-1.354-1.927-0.561-3.867-1.258-5.767-2.069-1.862-0.795-3.601-1.682-4.909-2.365-3.059-1.594-5.969-2.927-8.65-3.961-4.342-1.674-8.212-2.695-12.178-3.212-2.393-0.312-4.96-0.476-7.431-0.476-0.038 0-0.076 0-0.115 0-2.123 0.004-4.139 0.241-6.001 0.497-0.485 0.067-0.986 0.14-1.49 0.218-0.276 0.043-0.553 0.087-0.846 0.134-2.064 0.331-4.405 0.705-7.247 0.674-1.731-0.019-3.5-0.126-5.21-0.231-1.104-0.067-2.246-0.137-3.335-0.179-1.497-0.058-2.875-0.039-4.095 0.055-4.395 0.34-8.060 1.253-9.806 2.443l-0.040-0.021c0.895-0.61 2.242-1.139 4.003-1.57 1.682-0.412 3.7-0.718 5.836-0.883 1.224-0.095 2.605-0.113 4.105-0.055 1.090 0.042 2.232 0.112 3.337 0.179 1.709 0.104 3.476 0.212 5.205 0.231 2.836 0.031 5.172-0.343 7.233-0.673 0.293-0.047 0.57-0.091 0.846-0.134 0.505-0.078 1.006-0.151 1.491-0.218 1.865-0.256 3.884-0.493 6.013-0.498 2.511-0.005 5.124 0.16 7.558 0.477 2.047 0.267 4.031 0.66 6.066 1.201 1.96 0.522 3.965 1.181 6.129 2.015 2.683 1.035 5.595 2.368 8.656 3.963 1.306 0.683 3.044 1.568 4.904 2.363 3.856 1.647 7.835 2.797 11.827 3.419 1.424 0.222 2.91 0.4 4.418 0.529 1.85 0.155 3.664 0.236 5.391 0.24 2.703 0.007 5.842-0.048 8.903-0.789 1.549-0.375 2.89-0.924 4.098-1.677 2.122-1.323 3.528-3.020 4.889-4.662 0.7-0.845 1.361-1.642 2.079-2.333 0.231-0.221 0.463-0.449 0.687-0.67 0.759-0.745 1.544-1.515 2.448-2.226 1.033-0.819 2.142-1.483 3.296-1.974 1.337-0.569 2.701-0.888 4.052-0.947 0.834-0.036 1.681 0.001 2.589 0.114 2.426 0.302 4.832 1.178 7.287 2.126 2.141 0.827 4.272 1.88 6.162 3.047 2.21 1.372 4.129 2.858 5.88 4.519l-0.016-0.015c1.595 1.512 3.057 3.176 4.344 4.946l-0.049 0.013c-2.764-3.802-6.194-6.978-10.197-9.441-1.888-1.165-4.015-2.217-6.152-3.042-2.451-0.947-4.852-1.821-7.269-2.122-0.902-0.112-1.744-0.149-2.573-0.113-2.484 0.108-5.079 1.141-7.309 2.908-0.903 0.71-1.687 1.48-2.446 2.224-0.224 0.221-0.457 0.449-0.687 0.67-0.717 0.689-1.378 1.486-2.077 2.33-0.667 0.806-1.358 1.639-2.15 2.44-0.898 0.908-1.797 1.638-2.749 2.231-1.213 0.756-2.56 1.307-4.117 1.684-1.373 0.332-2.848 0.552-4.511 0.672-1.408 0.101-2.822 0.12-4.057 0.12z"></path>
<path fill="#ffe492" style="fill: var(--color1, #ffe492)" opacity="0.3" d="M76.194 23.55c-1.091 0-2.139-0.039-3.076-0.079-1.724-0.073-3.54-0.224-5.396-0.449-1.504-0.185-2.982-0.416-4.396-0.687-3.87-0.741-7.691-1.974-11.681-3.77-1.74-0.783-3.381-1.625-4.911-2.421-3.022-1.566-6.037-2.836-8.961-3.775-4.301-1.38-8.324-2.114-12.663-2.309-2.472-0.111-5.079-0.066-7.539 0.131-2.059 0.165-4 0.563-5.813 0.956-1.417 0.285-1.899 0.396-2.381 0.509l0.948-0.188c-0.124 0.029-0.25 0.058-0.377 0.087-2.087 0.485-4.449 1.034-7.48 1.034-0.051 0-0.102-0-0.154-0.001-2.051-0.012-4.144-0.188-6.169-0.358-0.803-0.068-1.633-0.137-2.429-0.194-1.556-0.11-2.903-0.143-4.12-0.099-4.424 0.158-8.158 0.798-10.245 1.755l-0.036-0.028c1.031-0.473 2.523-0.884 4.313-1.188 1.76-0.299 3.823-0.498 5.964-0.574 1.22-0.044 2.571-0.011 4.13 0.099 0.797 0.056 1.628 0.126 2.431 0.194 2.023 0.17 4.115 0.346 6.161 0.358 3.094 0.019 5.494-0.539 7.612-1.031l0.377-0.087c-0.436 0.069 0.047-0.042 0.531-0.151l0.904-0.17c1.815-0.394 3.76-0.792 5.825-0.957 2.464-0.197 5.075-0.243 7.551-0.131 2.15 0.097 4.2 0.325 6.267 0.698 2.129 0.384 4.228 0.912 6.419 1.616 2.928 0.94 5.946 2.212 8.971 3.779 1.53 0.795 3.169 1.637 4.908 2.42 3.985 1.793 7.8 3.025 11.664 3.764 1.411 0.271 2.888 0.501 4.389 0.686 1.854 0.225 3.667 0.376 5.389 0.448 2.896 0.122 5.978 0.185 9.009-0.491 1.595-0.356 2.945-0.908 4.127-1.688 2.105-1.389 3.415-3.284 4.57-4.956 0.582-0.841 1.131-1.636 1.737-2.313 0.219-0.244 0.439-0.497 0.652-0.741 0.666-0.764 1.355-1.554 2.169-2.292 0.943-0.86 1.98-1.573 3.083-2.119 1.267-0.628 2.586-1.015 3.921-1.152 0.835-0.085 1.685-0.099 2.598-0.042 2.551 0.16 5.143 0.949 7.564 1.779 2.236 0.766 4.443 1.783 6.383 2.943 2.158 1.286 4.147 2.816 5.91 4.549 1.577 1.549 2.969 3.253 4.137 5.065l-0.055 0.013c-2.484-3.85-5.953-7.171-10.034-9.602-1.936-1.157-4.139-2.173-6.37-2.937-2.416-0.828-5.001-1.615-7.542-1.774-0.908-0.057-1.752-0.043-2.582 0.042-2.466 0.252-4.94 1.409-6.965 3.256-0.813 0.736-1.501 1.526-2.166 2.289-0.213 0.244-0.433 0.497-0.652 0.742-0.605 0.676-1.154 1.47-1.735 2.31-1.158 1.674-2.47 3.572-4.582 4.966-1.188 0.784-2.545 1.339-4.15 1.697-1.392 0.31-2.893 0.49-4.591 0.549-0.458 0.017-0.916 0.023-1.366 0.023z"></path>
<path fill="#ffe492" style="fill: var(--color1, #ffe492)" opacity="0.3" d="M78.347 23.69h-0.047c-1.542-0.002-3.055-0.116-4.474-0.232-1.721-0.141-3.536-0.362-5.393-0.657-1.497-0.241-2.966-0.525-4.367-0.845-3.716-0.847-7.376-2.154-11.519-4.116-1.492-0.706-2.961-1.466-4.381-2.202 1.909 0.909 1.735 0.817 1.56 0.726l-2.093-1.002c-3.038-1.566-6.157-2.774-9.271-3.589-4.264-1.117-8.565-1.577-13.148-1.407-2.513 0.093-5.117 0.349-7.532 0.739-1.905 0.308-3.603 0.801-5.624 1.414-2.203 0.613-2.662 0.758-3.12 0.904l1.713-0.471c-1.021 0.32-2.179 0.682-3.477 0.957-1.491 0.316-2.938 0.468-4.421 0.467-2.313-0.004-4.674-0.262-6.956-0.512-0.559-0.061-1.138-0.125-1.696-0.182-1.601-0.164-2.957-0.247-4.144-0.253-4.372-0.023-8.266 0.366-10.685 1.068l-0.028-0.035c1.185-0.344 2.783-0.623 4.621-0.807 1.842-0.184 3.949-0.276 6.092-0.265 1.191 0.006 2.55 0.089 4.155 0.254 0.559 0.057 1.137 0.121 1.697 0.182 2.28 0.25 4.638 0.508 6.945 0.512h0.031c3.301 0 5.815-0.787 7.837-1.419l0.030-0.009c0.53-0.165 0.967-0.299 1.377-0.424 2.025-0.614 3.725-1.109 5.637-1.417 2.419-0.39 5.027-0.646 7.545-0.74 2.243-0.083 4.358-0.020 6.468 0.194 2.273 0.231 4.468 0.628 6.71 1.216 3.12 0.817 6.245 2.027 9.287 3.595 0.178 0.092 0.356 0.184 0.533 0.276 1.42 0.735 2.888 1.495 4.378 2.201 4.138 1.959 7.793 3.265 11.502 4.11 1.399 0.319 2.867 0.603 4.361 0.843 1.855 0.295 3.667 0.516 5.386 0.656 3.079 0.252 6.092 0.426 9.115-0.193 1.64-0.336 3-0.892 4.154-1.698 2.086-1.457 3.226-3.477 4.231-5.258 0.471-0.834 0.915-1.622 1.417-2.284 0.193-0.255 0.387-0.518 0.574-0.773 0.585-0.797 1.191-1.621 1.933-2.398 0.854-0.901 1.82-1.663 2.87-2.265 1.197-0.686 2.472-1.142 3.79-1.357 0.818-0.133 1.652-0.198 2.548-0.198 0.019 0 0.039 0 0.058 0 2.787 0.009 5.655 0.77 7.843 1.431 2.33 0.705 4.614 1.687 6.604 2.839 2.217 1.28 4.221 2.825 5.957 4.594 1.557 1.587 2.88 3.331 3.93 5.184l-0.061 0.012c-1.563-2.757-4.544-6.688-9.87-9.762-1.985-1.149-4.264-2.129-6.589-2.832-2.181-0.66-5.040-1.418-7.814-1.427-0.913-0.003-1.76 0.061-2.59 0.196-2.443 0.397-4.794 1.677-6.621 3.604-0.74 0.775-1.345 1.598-1.93 2.394-0.187 0.255-0.381 0.519-0.574 0.774-0.5 0.661-0.944 1.447-1.414 2.281-1.007 1.785-2.149 3.808-4.243 5.271-1.163 0.812-2.531 1.371-4.183 1.71-1.4 0.286-2.913 0.426-4.624 0.426z"></path>
<path fill="#ffe492" style="fill: var(--color1, #ffe492)" opacity="0.3" d="M80.060 23.87c-0.332 0-0.672-0.006-1.019-0.019-1.521-0.056-2.999-0.225-4.505-0.407-1.746-0.212-3.51-0.495-5.391-0.865-1.489-0.296-2.949-0.633-4.339-1.002-3.528-0.935-7.030-2.311-11.356-4.462-1.075-0.534-2.149-1.094-3.187-1.636-0.566-0.295-1.15-0.6-1.729-0.898-3.074-1.576-6.297-2.722-9.581-3.404-4.339-0.901-8.798-1.066-13.633-0.505-2.554 0.297-5.157 0.762-7.525 1.346-1.903 0.469-3.56 1.127-5.314 1.825l-0.121 0.048c-0.274 0.109-0.551 0.22-0.832 0.332l-0.488 0.195c-1.023 0.411-2.128 0.84-3.396 1.17-1.471 0.383-2.927 0.571-4.45 0.576-2.535 0.007-5.122-0.347-7.622-0.689 1.337 0.146 0.966 0.094 0.596 0.043l-1.68-0.19c-1.68-0.225-3.005-0.354-4.169-0.408-4.297-0.196-8.352-0.058-11.125 0.38l-0.018-0.040c2.781-0.439 6.844-0.578 11.148-0.381 1.168 0.053 2.496 0.183 4.179 0.409 0.359 0.048 0.728 0.099 1.085 0.148 2.47 0.338 5.024 0.688 7.525 0.688 0.027 0 0.054 0 0.081-0 3.236-0.010 5.539-0.828 7.807-1.739 0.164-0.066 0.327-0.131 0.488-0.195 0.28-0.112 0.557-0.223 0.832-0.332l0.121-0.048c1.758-0.698 3.418-1.358 5.326-1.829 2.373-0.585 4.979-1.051 7.538-1.348 4.847-0.563 9.318-0.398 13.669 0.506 3.292 0.684 6.523 1.832 9.603 3.412 0.579 0.298 1.164 0.603 1.729 0.898 1.038 0.542 2.112 1.102 3.186 1.636 4.321 2.148 7.819 3.523 11.34 4.456 1.389 0.368 2.846 0.705 4.333 1 1.879 0.37 3.64 0.653 5.383 0.864 2.646 0.321 5.94 0.72 9.22 0.105 1.686-0.316 3.055-0.875 4.182-1.709 2.066-1.527 3.024-3.675 3.869-5.57 0.367-0.823 0.714-1.601 1.119-2.246 0.158-0.251 0.316-0.511 0.468-0.763 0.513-0.844 1.043-1.716 1.724-2.546 0.768-0.943 1.662-1.754 2.656-2.41 1.127-0.744 2.359-1.269 3.659-1.562 0.835-0.188 1.691-0.303 2.616-0.353 1.239-0.067 2.558 0.005 4.033 0.22 1.247 0.182 2.585 0.465 4.088 0.864 2.425 0.644 4.785 1.59 6.825 2.735 2.276 1.274 4.296 2.835 6.004 4.639 1.538 1.625 2.791 3.409 3.723 5.303l-0.067 0.012c-1.97-3.998-5.417-7.522-9.707-9.923-2.034-1.142-4.388-2.085-6.806-2.727-3.24-0.861-5.808-1.204-8.086-1.080-0.92 0.050-1.769 0.165-2.598 0.351-3.095 0.695-5.122 2.533-6.277 3.951-0.679 0.828-1.209 1.699-1.721 2.541-0.153 0.252-0.311 0.512-0.469 0.763-0.403 0.643-0.75 1.42-1.117 2.242-0.847 1.899-1.807 4.051-3.883 5.585-1.136 0.84-2.516 1.404-4.215 1.722-1.152 0.216-2.381 0.323-3.731 0.323z"></path>
<path fill="#ffe492" style="fill: var(--color1, #ffe492)" opacity="0.3" d="M81.543 24.078c-2.263 0-4.438-0.349-6.299-0.648-1.751-0.281-3.513-0.632-5.389-1.073-1.48-0.351-2.931-0.741-4.311-1.159-4.137-1.253-7.825-3.051-11.194-4.808-0.688-0.359-1.383-0.728-2.055-1.086-0.933-0.496-1.898-1.010-2.864-1.504-3.12-1.592-6.447-2.675-9.89-3.218-4.454-0.703-9.072-0.573-14.119 0.398-2.598 0.499-5.198 1.175-7.518 1.954-1.789 0.6-3.303 1.358-4.906 2.161-0.114 0.057-0.227 0.114-0.342 0.171l-0.062 0.031c1.532-0.692 1.138-0.492 0.744-0.292l-1.945 0.892c-0.979 0.488-2.056 0.992-3.303 1.377-1.447 0.447-2.906 0.67-4.46 0.682-2.728 0.020-5.509-0.44-8.198-0.886-0.189-0.031-0.376-0.062-0.563-0.093-1.773-0.292-3.067-0.466-4.194-0.562-4.189-0.358-8.405-0.471-11.567-0.309l-0.006-0.045c3.167-0.162 7.389-0.050 11.583 0.309 1.13 0.097 2.427 0.27 4.203 0.563 0.187 0.031 0.374 0.062 0.563 0.093 2.684 0.445 5.459 0.904 8.177 0.884 3.376-0.025 5.753-1.071 7.716-2.049 0.408-0.203 0.811-0.404 1.201-0.6l0.404-0.202c1.606-0.804 3.122-1.563 4.917-2.165 2.324-0.78 4.929-1.457 7.532-1.957 2.392-0.46 4.64-0.726 6.87-0.812 2.488-0.096 4.941 0.043 7.291 0.414 3.454 0.545 6.791 1.631 9.92 3.227 0.967 0.495 1.932 1.008 2.865 1.505 0.672 0.357 1.366 0.727 2.054 1.086 3.366 1.755 7.049 3.551 11.178 4.802 1.378 0.418 2.826 0.807 4.305 1.158 1.872 0.441 3.632 0.791 5.38 1.072 2.684 0.431 6.025 0.967 9.326 0.403 1.732-0.296 3.109-0.859 4.21-1.719 2.045-1.599 2.81-3.879 3.485-5.891 0.271-0.808 0.527-1.572 0.843-2.199 0.117-0.232 0.234-0.471 0.347-0.703 0.444-0.906 0.903-1.844 1.53-2.743 0.683-0.986 1.505-1.846 2.443-2.556 1.058-0.802 2.245-1.396 3.528-1.766 0.833-0.24 1.692-0.407 2.625-0.509 1.257-0.138 2.652-0.133 4.147 0.014 1.308 0.129 2.739 0.372 4.252 0.722 2.52 0.583 4.956 1.493 7.046 2.631 2.335 1.268 4.371 2.844 6.050 4.684 1.517 1.663 2.701 3.487 3.516 5.421l-0.073 0.011c-1.728-4.099-5.118-7.68-9.544-10.083-2.084-1.134-4.512-2.041-7.023-2.622-3.255-0.753-5.989-0.993-8.359-0.733-0.926 0.102-1.779 0.267-2.606 0.505-3.053 0.88-4.912 2.824-5.934 4.299-0.626 0.897-1.084 1.833-1.528 2.738-0.113 0.232-0.231 0.472-0.347 0.704-0.315 0.625-0.571 1.387-0.841 2.195-0.325 0.968-0.693 2.065-1.227 3.093-0.612 1.178-1.355 2.099-2.272 2.816-0.53 0.414-1.139 0.767-1.81 1.048-0.722 0.302-1.542 0.534-2.439 0.687-1.026 0.175-2.055 0.245-3.067 0.245z"></path>
<path fill="#ffe492" style="fill: var(--color1, #ffe492)" opacity="0.3" d="M82.881 24.306c-0.748 0-1.532-0.044-2.36-0.131-1.63-0.172-3.191-0.484-4.568-0.759-1.735-0.347-3.548-0.778-5.386-1.282-1.471-0.405-2.912-0.848-4.283-1.317-3.934-1.343-7.323-3.129-11.031-5.154-2.822-1.452-3.145-1.632-3.468-1.812l2.48 1.271c-1.274-0.699-2.591-1.422-3.934-2.105-3.172-1.611-6.603-2.631-10.2-3.033-4.537-0.507-9.45-0.070-14.604 1.299-2.645 0.702-5.242 1.588-7.511 2.561-1.708 0.733-3.115 1.596-4.604 2.511-0.151 0.093-0.303 0.186-0.456 0.28 0.303-0.159-0.090 0.083-0.485 0.325l-0.721 0.409c-0.874 0.527-1.938 1.128-3.21 1.585-1.424 0.511-2.886 0.769-4.47 0.788-2.9 0.034-5.852-0.543-8.707-1.101l-0.109-0.021c-1.398-0.273-2.876-0.549-4.219-0.716-4.092-0.51-8.356-0.865-12.007-0.998l0.005-0.048c3.655 0.133 7.923 0.488 12.019 0.999 1.346 0.168 2.827 0.444 4.227 0.718l0.109 0.021c2.849 0.557 5.795 1.132 8.681 1.098 3.333-0.039 5.635-1.157 7.625-2.358 0.417-0.25 0.826-0.501 1.206-0.734 0.153-0.093 0.305-0.187 0.456-0.28 1.492-0.916 2.9-1.781 4.614-2.516 2.273-0.975 4.875-1.862 7.525-2.566 2.418-0.642 4.797-1.085 7.072-1.315 2.599-0.263 5.149-0.259 7.58 0.012 3.61 0.403 7.055 1.427 10.237 3.043 1.343 0.684 2.661 1.407 3.936 2.106 0.324 0.178 0.658 0.361 0.988 0.541 3.704 2.023 7.090 3.807 11.017 5.147 1.369 0.468 2.808 0.91 4.276 1.315 1.836 0.503 3.645 0.934 5.378 1.28 2.716 0.543 6.098 1.218 9.431 0.701 1.778-0.276 3.164-0.842 4.238-1.73 2.022-1.673 2.607-4.195 3.077-6.221 0.183-0.789 0.356-1.535 0.59-2.142 0.074-0.191 0.149-0.388 0.221-0.579 0.374-0.99 0.762-2.014 1.343-3.005 0.897-1.541 2.601-3.603 5.625-4.673 0.836-0.295 1.697-0.513 2.634-0.665 2.452-0.403 5.371-0.273 8.677 0.388 2.614 0.522 5.127 1.396 7.268 2.527 2.394 1.262 4.446 2.853 6.097 4.73 0.758 0.861 1.427 1.78 1.991 2.732 0.538 0.91 0.982 1.854 1.319 2.808l-0.078 0.010c-1.486-4.201-4.818-7.839-9.381-10.244-2.133-1.127-4.636-1.997-7.24-2.517-3.29-0.657-6.194-0.787-8.63-0.387-0.93 0.151-1.786 0.367-2.614 0.66-3.003 1.062-4.698 3.114-5.591 4.647-0.579 0.988-0.966 2.010-1.34 2.999-0.072 0.191-0.147 0.388-0.221 0.579-0.234 0.605-0.406 1.349-0.589 2.137-0.237 1.020-0.505 2.175-0.963 3.266-0.527 1.253-1.223 2.227-2.129 2.977-0.517 0.428-1.122 0.788-1.797 1.072-0.728 0.306-1.564 0.533-2.486 0.676-0.809 0.126-1.654 0.188-2.549 0.188z"></path>
<path fill="#ffe492" style="fill: var(--color1, #ffe492)" opacity="0.3" d="M84.113 24.546c-0.897 0-1.842-0.070-2.852-0.21-1.636-0.227-3.21-0.603-4.6-0.935-1.749-0.418-3.56-0.919-5.383-1.49-1.461-0.46-2.893-0.955-4.254-1.474-3.747-1.426-6.961-3.264-10.363-5.21-0.168-0.096-0.337-0.193-0.506-0.289-1.582-0.904-3.218-1.839-4.924-2.703-3.227-1.631-6.762-2.589-10.509-2.847-4.706-0.324-9.783 0.416-15.090 2.201-2.655 0.893-5.32 2.018-7.504 3.168-1.649 0.869-2.972 1.846-4.372 2.881-0.166 0.122-0.332 0.245-0.5 0.369-0.335 0.246-0.733 0.539-1.15 0.837-0.772 0.555-1.824 1.26-3.117 1.791-1.401 0.575-2.867 0.868-4.481 0.895-1.327 0.020-2.79-0.103-4.476-0.376-1.447-0.234-2.846-0.541-4.395-0.888-1.414-0.321-2.906-0.652-4.244-0.871-3.965-0.648-8.153-1.216-12.447-1.687l0.015-0.051c4.297 0.472 8.487 1.040 12.454 1.688 1.342 0.219 2.836 0.551 4.252 0.872 2.596 0.582 5.826 1.306 8.838 1.261 3.443-0.059 5.656-1.317 7.535-2.668 0.417-0.299 0.815-0.591 1.149-0.837 0.168-0.123 0.334-0.246 0.499-0.368 1.403-1.036 2.728-2.015 4.382-2.887 2.189-1.153 4.858-2.28 7.518-3.174 5.323-1.79 10.418-2.533 15.142-2.207 1.811 0.125 3.59 0.415 5.287 0.862 1.821 0.479 3.593 1.151 5.267 1.997 1.707 0.865 3.344 1.8 4.927 2.705l0.506 0.289c3.399 1.944 6.61 3.781 10.349 5.204 1.36 0.518 2.789 1.013 4.248 1.472 1.821 0.57 3.629 1.071 5.375 1.488 2.745 0.656 6.16 1.471 9.537 0.998 1.829-0.256 3.225-0.826 4.265-1.74 2.004-1.747 2.361-4.415 2.648-6.559 0.103-0.767 0.2-1.491 0.36-2.077 0.033-0.121 0.067-0.242 0.1-0.364 0.3-1.103 0.61-2.244 1.149-3.357 0.77-1.601 2.311-3.772 5.281-5.023 0.829-0.349 1.693-0.617 2.643-0.821 1.32-0.285 2.792-0.419 4.373-0.399 1.444 0.019 2.985 0.166 4.582 0.438 2.708 0.461 5.298 1.299 7.489 2.423 2.453 1.256 4.52 2.862 6.144 4.775 0.745 0.878 1.39 1.816 1.917 2.789 0.505 0.932 0.904 1.898 1.185 2.871l-0.084 0.009c-1.225-4.241-4.585-8.033-9.218-10.404-2.182-1.119-4.76-1.953-7.457-2.412-3.326-0.566-6.403-0.58-8.903-0.040-0.943 0.202-1.801 0.468-2.622 0.814-2.95 1.242-4.482 3.402-5.247 4.995-0.538 1.11-0.848 2.249-1.147 3.351-0.033 0.122-0.067 0.244-0.099 0.365-0.161 0.583-0.257 1.307-0.36 2.072-0.288 2.15-0.646 4.826-2.663 6.584-0.502 0.441-1.101 0.81-1.782 1.096-0.733 0.308-1.585 0.532-2.534 0.665-0.684 0.096-1.393 0.144-2.136 0.144z"></path>
<path fill="#ffe492" style="fill: var(--color1, #ffe492)" opacity="0.3" d="M85.271 24.796c-1.022 0-2.104-0.099-3.27-0.299-1.65-0.282-3.234-0.722-4.632-1.11-1.766-0.491-3.576-1.062-5.38-1.698-1.451-0.513-2.872-1.062-4.226-1.631-3.333-1.402-6.181-3.12-9.197-4.939 1.318 0.729 0.825 0.429 0.332 0.13l-1.841-1.037c-1.778-1.062-3.296-1.937-4.926-2.759-3.284-1.653-6.924-2.548-10.817-2.662-4.893-0.143-10.134 0.901-15.577 3.102-2.704 1.094-5.366 2.434-7.497 3.775-1.605 1.010-2.86 2.11-4.188 3.274-0.165 0.144-0.33 0.289-0.496 0.434-0.296 0.259-0.688 0.599-1.093 0.941-1.703 1.441-3.927 2.924-7.515 3-0.112 0.002-0.224 0.003-0.336 0.003-2.802 0-5.663-0.666-8.589-1.41l-0.183-0.047c-1.45-0.372-2.819-0.723-4.086-0.978-4.777-0.963-9.396-1.776-12.887-2.377l0.025-0.053c3.492 0.601 8.113 1.414 12.891 2.377 1.271 0.256 2.642 0.608 4.093 0.98l0.183 0.047c3.034 0.771 5.996 1.459 8.887 1.403 3.549-0.075 5.754-1.547 7.444-2.977 0.404-0.341 0.796-0.682 1.092-0.94 0.166-0.145 0.331-0.29 0.496-0.434 1.33-1.166 2.587-2.267 4.197-3.281 2.135-1.344 4.803-2.687 7.512-3.783 2.515-1.017 5.030-1.798 7.477-2.321 2.807-0.6 5.551-0.866 8.155-0.79 3.914 0.114 7.572 1.014 10.871 2.675 1.632 0.823 3.152 1.699 4.931 2.762 0.506 0.302 1.016 0.61 1.509 0.907 3.013 1.817 5.859 3.533 9.185 4.932 1.352 0.569 2.771 1.117 4.22 1.629 1.802 0.635 3.609 1.206 5.373 1.696 2.768 0.769 6.214 1.727 9.643 1.296 1.874-0.236 3.278-0.808 4.292-1.75 1.978-1.826 2.098-4.645 2.193-6.909 0.031-0.739 0.061-1.437 0.155-1.999l0.002-0.013c0.212-1.259 0.43-2.562 0.933-3.846 0.434-1.121 1.039-2.128 1.799-2.995 0.856-0.977 1.911-1.777 3.136-2.378 0.82-0.402 1.688-0.722 2.652-0.976 2.606-0.693 5.798-0.8 9.233-0.309 1.382 0.197 2.746 0.497 4.053 0.889 1.314 0.395 2.545 0.876 3.658 1.43 2.513 1.25 4.596 2.871 6.191 4.82 1.434 1.752 2.435 3.75 2.895 5.779l-0.090 0.007c-0.985-4.342-4.284-8.192-9.055-10.564-2.23-1.111-4.884-1.909-7.674-2.307-3.415-0.488-6.588-0.382-9.175 0.306-0.957 0.253-1.817 0.57-2.631 0.969-2.288 1.122-3.984 2.97-4.904 5.343-0.5 1.281-0.719 2.582-0.93 3.839l-0.002 0.013c-0.094 0.56-0.124 1.257-0.155 1.995-0.096 2.272-0.215 5.098-2.208 6.938-0.489 0.454-1.084 0.831-1.769 1.12-0.739 0.312-1.606 0.532-2.58 0.654-0.58 0.073-1.177 0.109-1.797 0.109z"></path>
<path fill="#ffe492" style="fill: var(--color1, #ffe492)" opacity="0.3" d="M5.015 25.111c-1.253 0-2.617-0.147-4.157-0.446-1.53-0.298-3.043-0.708-4.451-1.108-0.255-0.073-0.508-0.145-0.759-0.218-1.25-0.359-2.431-0.698-3.535-0.962-4.401-1.053-8.597-1.999-12.654-2.914l-0.672-0.152 0.034-0.054 0.672 0.152c4.057 0.915 8.253 1.862 12.656 2.915 1.107 0.265 2.289 0.604 3.541 0.964 0.251 0.072 0.504 0.145 0.758 0.217 2.889 0.82 5.959 1.615 8.935 1.544 3.66-0.091 5.853-1.804 7.354-3.286 0.385-0.379 0.755-0.757 1.035-1.043 0.111-0.113 0.261-0.267 0.411-0.422l0.050-0.051c1.269-1.305 2.467-2.538 4.043-3.701 2.080-1.534 4.746-3.094 7.505-4.392 2.56-1.204 5.144-2.155 7.679-2.827 2.908-0.771 5.749-1.171 8.443-1.189 4.054-0.036 7.819 0.802 11.189 2.49 1.868 0.937 3.543 1.951 4.936 2.819 0.757 0.472 1.515 0.957 2.248 1.425 2.594 1.658 5.276 3.372 8.284 4.76 1.344 0.62 2.754 1.221 4.192 1.786 1.779 0.698 3.586 1.338 5.37 1.903 2.789 0.884 6.26 1.983 9.747 1.593 1.919-0.215 3.333-0.791 4.319-1.761 1.953-1.909 1.821-4.882 1.714-7.27-0.031-0.706-0.061-1.374-0.025-1.911 0.080-1.211 0.201-2.618 0.62-3.997 0.353-1.168 0.886-2.225 1.584-3.141 0.79-1.036 1.801-1.905 3.007-2.582 0.799-0.449 1.694-0.83 2.66-1.132 1.379-0.433 2.927-0.706 4.6-0.809 1.567-0.097 3.219-0.046 4.911 0.152 1.426 0.167 2.832 0.442 4.179 0.817 1.355 0.377 2.618 0.848 3.754 1.398 1.31 0.633 2.514 1.381 3.58 2.223 1.009 0.797 1.904 1.687 2.659 2.643 1.413 1.789 2.342 3.829 2.688 5.898l-0.096 0.006c-0.743-4.443-3.983-8.352-8.891-10.724-2.248-1.088-5.049-1.87-7.891-2.203-3.513-0.411-6.78-0.186-9.448 0.652-0.959 0.3-1.847 0.678-2.639 1.123-2.271 1.276-3.806 3.191-4.561 5.691-0.418 1.375-0.538 2.78-0.618 3.989-0.035 0.535-0.006 1.202 0.026 1.907 0.052 1.178 0.112 2.514-0.087 3.805-0.231 1.498-0.767 2.642-1.641 3.497-0.476 0.468-1.067 0.853-1.757 1.144-0.745 0.315-1.629 0.531-2.627 0.643-0.504 0.056-1.007 0.082-1.508 0.082-2.997 0-5.901-0.92-8.302-1.681-1.787-0.566-3.597-1.208-5.378-1.906-1.44-0.566-2.853-1.168-4.198-1.789-3.014-1.391-5.699-3.107-8.295-4.767-0.733-0.468-1.49-0.952-2.247-1.424-1.391-0.867-3.063-1.879-4.928-2.815-3.352-1.679-7.095-2.512-11.126-2.477-6.33 0.043-12.23 2.201-16.064 4.004-2.754 1.295-5.414 2.852-7.49 4.383-1.571 1.159-2.768 2.39-4.035 3.694-0.153 0.157-0.307 0.315-0.461 0.473-0.28 0.287-0.651 0.665-1.036 1.044-0.63 0.622-1.62 1.528-2.931 2.206-0.576 0.305-1.245 0.568-1.946 0.755l-0.067 0.015c-0.78 0.202-1.617 0.316-2.489 0.338-0.11 0.003-0.239 0.005-0.368 0.005-0.002 0-0.003 0-0.005 0h0z"></path>
<path fill="#ffe492" style="fill: var(--color1, #ffe492)" opacity="0.3" d="M5.417 26.901c-1.254 0-2.616-0.158-4.148-0.48-1.586-0.334-3.154-0.803-4.478-1.218-2.3-0.659-2.701-0.789-3.102-0.921l1.896 0.538c-1.098-0.35-2.135-0.681-3.113-0.951-3.512-0.971-7.001-1.918-10.376-2.834-1.116-0.303-2.27-0.616-3.389-0.921l0.042-0.056c1.119 0.304 2.273 0.618 3.389 0.921 3.375 0.916 6.864 1.864 10.377 2.835 0.981 0.271 2.019 0.602 3.118 0.953-1.614-0.44-1.212-0.31-0.811-0.18l2.016 0.563c2.747 0.86 5.933 1.771 8.984 1.686 3.746-0.108 5.85-1.978 7.264-3.595 0.363-0.414 0.713-0.83 0.978-1.146 0.136-0.162 0.271-0.324 0.406-0.486 1.214-1.454 2.36-2.828 3.909-4.148 2.015-1.716 4.678-3.492 7.498-5 3.927-2.092 9.997-4.644 16.611-4.921 4.206-0.181 8.078 0.595 11.507 2.306 1.541 0.769 3.064 1.656 4.94 2.876 0.948 0.617 1.889 1.256 2.799 1.874 2.367 1.608 4.814 3.27 7.572 4.658 1.335 0.672 2.736 1.326 4.163 1.944 1.728 0.747 3.533 1.457 5.368 2.111 2.818 0.999 6.323 2.242 9.853 1.89 1.935-0.189 3.397-0.785 4.346-1.771 1.925-1.995 1.512-5.26 1.21-7.644-0.085-0.669-0.165-1.301-0.18-1.81-0.035-1.133-0.032-2.626 0.305-4.135 0.582-2.614 2.010-4.657 4.245-6.073 0.783-0.499 1.682-0.932 2.669-1.288 1.406-0.507 2.991-0.848 4.713-1.014 1.623-0.156 3.33-0.153 5.075 0.007 1.473 0.139 2.921 0.39 4.304 0.746 1.397 0.36 2.693 0.819 3.851 1.364 1.339 0.63 2.562 1.38 3.636 2.23 1.018 0.806 1.909 1.708 2.65 2.681 1.391 1.827 2.249 3.908 2.481 6.017l-0.102 0.004c-0.5-4.544-3.681-8.511-8.727-10.884-2.288-1.076-5.168-1.821-8.108-2.098-3.625-0.334-6.986 0.012-9.72 0.998-0.98 0.353-1.87 0.783-2.648 1.278-2.22 1.406-3.639 3.438-4.218 6.039-0.336 1.504-0.339 2.995-0.305 4.126 0.016 0.508 0.096 1.139 0.18 1.807 0.156 1.232 0.333 2.629 0.232 3.992-0.118 1.588-0.594 2.794-1.456 3.687-0.464 0.482-1.050 0.875-1.743 1.169-0.751 0.319-1.651 0.531-2.674 0.631-1.588 0.158-3.296 0.016-5.224-0.435-1.675-0.392-3.281-0.961-4.697-1.463-1.837-0.655-3.645-1.367-5.375-2.114-1.429-0.618-2.832-1.273-4.169-1.946-2.763-1.39-5.213-3.055-7.583-4.664-0.909-0.618-1.849-1.257-2.797-1.873-1.873-1.218-3.394-2.103-4.931-2.871-3.408-1.701-7.255-2.472-11.435-2.292-6.586 0.276-12.635 2.82-16.551 4.906-2.814 1.506-5.472 3.278-7.483 4.99-1.545 1.316-2.69 2.687-3.901 4.14-0.445 0.542-0.578 0.7-0.711 0.858l0.305-0.372c-0.265 0.316-0.616 0.733-0.979 1.147-1.427 1.632-3.552 3.519-7.349 3.628-0.122 0.004-0.265 0.006-0.409 0.006h-0z"></path>
<path fill="#ffe492" style="fill: var(--color1, #ffe492)" opacity="0.3" d="M5.827 28.69c-3.428 0-7.024-1.265-10.212-2.386-0.98-0.345-1.905-0.67-2.784-0.945l-14.203-4.445 0.049-0.057 14.203 4.445c0.882 0.276 1.808 0.602 2.789 0.947 3.311 1.165 7.065 2.485 10.591 2.37 3.828-0.124 5.845-2.152 7.174-3.904 0.435-0.573 0.855-1.156 1.261-1.72 1.111-1.543 2.259-3.138 3.787-4.622 1.214-1.179 2.721-2.415 4.36-3.575 1.797-1.272 3.722-2.44 5.72-3.47 2.203-1.135 4.442-2.075 6.657-2.792 2.449-0.793 4.862-1.311 7.172-1.539 4.627-0.457 8.836 0.237 12.508 2.062 3.052 1.516 5.646 3.392 8.155 5.205 2.184 1.579 4.441 3.211 6.999 4.606 2.953 1.611 6.15 3.099 9.5 4.42 2.823 1.113 6.337 2.499 9.958 2.188 3.059-0.263 4.827-1.492 5.406-3.759 0.493-1.928 0.024-4.214-0.352-6.052-0.128-0.626-0.249-1.218-0.309-1.697-0.328-2.644-0.119-4.827 0.639-6.672 0.473-1.152 1.171-2.178 2.075-3.051 1.010-0.975 2.306-1.788 3.853-2.416 1.338-0.543 2.846-0.938 4.483-1.173 1.558-0.224 3.198-0.299 4.875-0.223 3.298 0.149 6.524 0.876 9.084 2.047 1.368 0.626 2.611 1.379 3.693 2.238 1.025 0.814 1.914 1.729 2.64 2.719 1.369 1.865 2.155 3.986 2.273 6.136l-0.107 0.002c-0.252-4.578-3.454-8.706-8.564-11.044-5.427-2.482-13.131-2.755-18.318-0.649-5.138 2.086-7.271 6.038-6.521 12.082 0.059 0.478 0.18 1.069 0.308 1.694 0.377 1.841 0.847 4.133 0.352 6.069-0.27 1.055-0.811 1.902-1.61 2.52-0.45 0.347-0.991 0.63-1.61 0.843-0.659 0.226-1.425 0.377-2.276 0.451-0.348 0.030-0.702 0.045-1.062 0.045-1.313 0-2.71-0.199-4.242-0.603-1.726-0.455-3.39-1.112-4.728-1.639-3.355-1.323-6.556-2.812-9.514-4.426-2.563-1.398-4.823-3.032-7.009-4.612-2.505-1.811-5.096-3.684-8.141-5.197-3.648-1.813-7.828-2.502-12.423-2.048-9.296 0.918-18.871 6.525-23.834 11.345-1.524 1.48-2.671 3.073-3.78 4.614-0.406 0.564-0.826 1.148-1.261 1.722-0.883 1.163-1.754 1.997-2.743 2.622-0.573 0.367-1.232 0.678-1.932 0.898l-0.059 0.016c-0.782 0.241-1.634 0.377-2.532 0.406-0.145 0.005-0.291 0.007-0.438 0.007z"></path>
</symbol>
  </defs>
</svg>
